<svg width="119" height="138" viewBox="0 0 119 138" fill="none" xmlns="http://www.w3.org/2000/svg">
    <g filter="url(#tesj403qea)">
        <rect x="4" width="111" height="130" rx="22" fill="url(#5krk42hozb)" shape-rendering="crispEdges"/>
    </g>
    <path d="M112.856 114H69.64a.13.13 0 0 1-.102-.053.208.208 0 0 1-.042-.128c0-.048.015-.094.042-.128a.13.13 0 0 1 .102-.053h43.216a.13.13 0 0 1 .102.053c.027.034.042.08.042.128a.207.207 0 0 1-.042.128.13.13 0 0 1-.102.053z" fill="#3F3D56"/>
    <path d="M85.874 111.926h-1.76l-.838-8.565h2.599v8.565z" fill="#FFB8B8"/>
    <path d="M82.857 111.291h3.394v2.697H80.72c0-.354.056-.705.163-1.032.107-.327.265-.625.463-.875.199-.25.434-.449.694-.584.259-.136.537-.206.818-.206z" fill="#2F2E41"/>
    <path d="m98.646 109.411-1.6.922-3.584-7.351 2.363-1.362 2.821 7.791z" fill="#FFB8B8"/>
    <path d="M26.498 51.243c-.248 0-.485.124-.66.345a1.35 1.35 0 0 0-.274.832c0 .312.099.612.274.832.175.221.412.345.66.345h18.665c.247 0 .485-.124.66-.345.175-.22.273-.52.273-.832a1.35 1.35 0 0 0-.273-.832c-.175-.221-.413-.345-.66-.345H26.498zM95.692 110.415l3.088-1.779.888 2.452-5.032 2.9a3.345 3.345 0 0 1-.059-2.063c.099-.331.248-.635.439-.895.191-.259.421-.468.676-.615z" fill="#3F3D56"/>
    <path d="M93.52 83.048c.169-.16.308-.365.407-.6a2.255 2.255 0 0 0 .064-1.539c-.08-.247-.201-.469-.356-.65l2.07-5.923-2.63.562-1.561 5.538a2.16 2.16 0 0 0-.325 1.235c.016.448.161.873.408 1.195.248.322.58.519.934.552.355.033.706-.098.99-.37z" fill="#FFB8B8"/>
    <path d="M85.762 109.668H84.08a.585.585 0 0 1-.439-.219.917.917 0 0 1-.205-.537L81.657 78.02a1.012 1.012 0 0 1 .04-.348.86.86 0 0 1 .154-.294.645.645 0 0 1 .237-.186.522.522 0 0 1 .277-.042l10.586 1.303a.61.61 0 0 1 .412.258.94.94 0 0 1 .172.538l.203 13.626a.778.778 0 0 0 .034.216l3.99 13.05a1.014 1.014 0 0 1-.015.63.832.832 0 0 1-.148.26.633.633 0 0 1-.217.168l-1.704.792a.522.522 0 0 1-.458-.005.727.727 0 0 1-.34-.387l-4.9-12.02a.956.956 0 0 1-.059-.207l-.837-5.088a.673.673 0 0 0-.184-.372.437.437 0 0 0-.33-.133.457.457 0 0 0-.321.17.705.705 0 0 0-.156.391l-1.69 18.605a.9.9 0 0 1-.21.516.578.578 0 0 1-.431.207z" fill="#2F2E41"/>
    <path d="M86.6 53.867c1.947 0 3.526-1.992 3.526-4.449s-1.58-4.448-3.527-4.448-3.526 1.991-3.526 4.448c0 2.457 1.579 4.449 3.526 4.449z" fill="#FFB8B8"/>
    <path d="M82.329 78.199c.451.393 5.537 4.62 11.334 1.258-.075-.817-.799-9.016-.167-15.06.3-2.868-.605-5.525-2.483-7.29-1.02-.954-2.224-1.547-3.486-1.719-1.262-.172-2.538.084-3.696.74-.095.055-.191.11-.288.169L82.33 78.199z" fill="#1876D0"/>
    <path d="M93.718 79.39a.533.533 0 0 1-.26-.07.674.674 0 0 1-.216-.195l-.77-1.062a.906.906 0 0 1-.154-.367 1.027 1.027 0 0 1 .01-.414l1.766-7.543-2.688-7.121a1.872 1.872 0 0 1-.081-1.005c.057-.295.184-.562.364-.765a1.1 1.1 0 0 1 .643-.37.983.983 0 0 1 .697.154c.215.14.39.357.505.625l3.634 7.438a2.555 2.555 0 0 1 .099 1.944l-2.96 8.27a.81.81 0 0 1-.196.313.586.586 0 0 1-.393.167z" fill="#1876D0"/>
    <path opacity=".2" d="M84.938 78.425H83.53l2.46-14.599.142.023-.547 13.802a.92.92 0 0 1-.2.55.582.582 0 0 1-.446.224z" fill="#000"/>
    <path d="M83.635 82.054c.138-.2.24-.437.299-.693.058-.256.071-.525.038-.788a2.122 2.122 0 0 0-.23-.734 1.657 1.657 0 0 0-.454-.543l1.05-6.335-2.48 1.238-.616 5.826a2.267 2.267 0 0 0-.114 1.293c.09.434.301.812.596 1.062s.652.355 1.004.295c.353-.06.675-.28.907-.62z" fill="#FFB8B8"/>
    <path d="M83.493 78.443a.539.539 0 0 1-.073-.005l-1.503-.21a.621.621 0 0 1-.418-.28.958.958 0 0 1-.156-.564l.622-18.978c.02-.596.21-1.161.536-1.592.327-.43.766-.697 1.237-.748.47-.052.94.115 1.32.469.38.353.645.87.745 1.451l.4 2.324-.001.017-2.072 17.422a.888.888 0 0 1-.216.497.573.573 0 0 1-.421.197z" fill="#1876D0"/>
    <path d="M89.505 53.34c-.366.08-.667-.563-.712-1.015-.046-.451.085-.884.099-1.332.014-.449-.154-.994-.523-1.127-.387-.14-.746.252-1.143.205-.552-.066-.83-.881-.897-1.541-.066-.66-.12-1.441-.598-1.817-.477-.376-1.067-.103-1.615-.09-.926.019-1.869-.872-2.085-1.972.112.04.232.033.34-.022a.583.583 0 0 0 .259-.28.835.835 0 0 0 .027-.431.705.705 0 0 0-.187-.363l1.05.649c-.144-.368.073-.788.371-.928.299-.14.646-.077.975-.012 1.644.322 3.548.163 4.639 1.745.755 1.095 1.377 3.179 1.292 4.528-.085 1.348-1.292 3.803-1.292 3.803z" fill="#3F3D56"/>
    <path d="M49.489 103.495H11.728c-.267 0-.522-.134-.71-.372a1.453 1.453 0 0 1-.295-.896L9 21.273c0-.167.026-.332.076-.487.05-.154.124-.294.218-.412a1.03 1.03 0 0 1 .326-.276.83.83 0 0 1 .385-.098h37.76c.267 0 .523.134.711.372.189.237.295.56.295.896l.312 14.666-.287.01-.312-14.671c0-.12-.018-.238-.054-.348a.957.957 0 0 0-.155-.295.736.736 0 0 0-.234-.198.593.593 0 0 0-.275-.07H10.005a.653.653 0 0 0-.507.266c-.135.17-.21.4-.21.64l1.722 80.954c0 .12.018.238.054.348a.937.937 0 0 0 .155.295.732.732 0 0 0 .234.198c.087.046.18.07.275.07h37.76c.191 0 .374-.096.508-.266.135-.169.21-.4.21-.64l-.335-15.752.287-.01.336 15.757c0 .167-.026.333-.076.487a1.33 1.33 0 0 1-.218.412 1.033 1.033 0 0 1-.326.277.827.827 0 0 1-.385.097z" fill="silver"/>
    <path d="m49.546 57.668-.287.01.148 6.952.287-.01-.148-6.952z" fill="#CCC"/>
    <path d="M46.1 96.36H14.82a.78.78 0 0 1-.605-.316 1.24 1.24 0 0 1-.252-.764l-1.427-67.06c0-.142.022-.283.065-.414.043-.132.106-.252.185-.353a.88.88 0 0 1 .279-.235.708.708 0 0 1 .328-.084h31.28a.78.78 0 0 1 .606.317c.16.203.251.478.251.765l.259 7.715-.287.015-.259-7.723a.89.89 0 0 0-.042-.277.76.76 0 0 0-.123-.235.585.585 0 0 0-.186-.158.471.471 0 0 0-.219-.056h-31.28a.518.518 0 0 0-.402.21.825.825 0 0 0-.168.509l1.428 67.059c0 .094.014.188.042.276.029.088.07.168.124.235.053.067.116.12.185.157a.47.47 0 0 0 .219.056H46.1a.519.519 0 0 0 .402-.211.825.825 0 0 0 .167-.508l-.184-8.805.287-.01.184 8.81c0 .142-.021.283-.064.415a1.136 1.136 0 0 1-.186.352.876.876 0 0 1-.278.236.708.708 0 0 1-.329.083z" fill="#BFBFBF"/>
    <path d="m46.172 57.849-.287.01.145 6.882.287-.01-.145-6.882z" fill="#CCC"/>
    <path d="M54.424 57.854H17.81c-.265 0-.519-.133-.707-.368a1.45 1.45 0 0 1-.298-.89l-.574-19.57c0-.337.106-.66.295-.897.188-.238.444-.371.71-.372h36.612c.265 0 .52.133.708.368.188.236.295.555.297.89l.575 19.57c0 .337-.107.66-.295.897s-.444.371-.71.372zM16.519 37.016l.574 19.57c0 .24.076.47.211.64.135.17.317.265.507.265h36.613c.189 0 .37-.094.504-.262.135-.168.211-.395.214-.634l-.575-19.57c0-.24-.076-.47-.21-.64a.653.653 0 0 0-.508-.265H17.237a.652.652 0 0 0-.505.262c-.134.167-.21.395-.213.634zM61.315 86.651H24.703c-.265 0-.52-.132-.707-.368a1.45 1.45 0 0 1-.298-.89l-.574-19.57c0-.336.106-.659.294-.896.189-.238.444-.372.71-.372h36.613c.265 0 .52.132.708.368.188.235.295.555.297.89l.574 19.57c0 .337-.106.659-.294.897-.189.237-.444.37-.71.371zM23.411 65.813l.574 19.57c0 .24.076.47.21.64.135.17.318.266.508.266h36.612c.19 0 .37-.094.505-.262s.211-.396.213-.634l-.574-19.57c0-.24-.076-.47-.21-.64a.653.653 0 0 0-.508-.266H24.13a.652.652 0 0 0-.505.262 1.035 1.035 0 0 0-.213.634z" fill="#3F3D56"/>
    <path d="M33.39 68.811c-.248 0-.485.124-.66.345a1.35 1.35 0 0 0-.274.832c0 .313.099.612.274.833.175.22.412.345.66.345h18.665c.247 0 .484-.124.66-.345.175-.22.273-.52.273-.832 0-.313-.098-.612-.273-.833-.176-.22-.413-.345-.66-.345H33.389zM33.39 74.426c-.248 0-.485.124-.66.345-.175.22-.274.52-.274.832 0 .312.099.612.274.833.175.22.412.344.66.344h18.665c.247 0 .484-.124.66-.344.175-.221.273-.52.273-.833 0-.312-.098-.612-.273-.832-.176-.221-.413-.345-.66-.345H33.389zM33.39 80.04c-.248 0-.485.124-.66.345a1.35 1.35 0 0 0-.274.833c0 .312.099.611.274.832.175.221.412.345.66.345h18.665c.247 0 .484-.124.66-.345.175-.22.273-.52.273-.832 0-.313-.098-.612-.273-.833-.176-.22-.413-.345-.66-.345H33.389zM26.498 40.014c-.248 0-.485.123-.66.344a1.35 1.35 0 0 0-.274.833c0 .312.099.611.274.832.175.221.412.345.66.345h18.665c.247 0 .485-.124.66-.345.175-.22.273-.52.273-.832a1.35 1.35 0 0 0-.273-.833c-.175-.22-.413-.344-.66-.344H26.498zM26.498 45.628c-.248 0-.485.124-.66.345a1.35 1.35 0 0 0-.274.832c0 .313.099.612.274.833.175.22.412.345.66.345h18.665c.247 0 .485-.124.66-.345.175-.22.273-.52.273-.833a1.35 1.35 0 0 0-.273-.832c-.175-.22-.413-.345-.66-.345H26.498z" fill="#3F3D56"/>
    <defs>
        <linearGradient id="5krk42hozb" x1="110.5" y1="130" x2="8.582" y2="29.511" gradientUnits="userSpaceOnUse">
            <stop stop-color="#1876D0"/>
            <stop offset="1" stop-color="#A4CEF7" stop-opacity="0"/>
        </linearGradient>
        <filter id="tesj403qea" x="0" y="0" width="119" height="138" filterUnits="userSpaceOnUse" color-interpolation-filters="sRGB">
            <feFlood flood-opacity="0" result="BackgroundImageFix"/>
            <feColorMatrix in="SourceAlpha" values="0 0 0 0 0 0 0 0 0 0 0 0 0 0 0 0 0 0 127 0" result="hardAlpha"/>
            <feOffset dy="4"/>
            <feGaussianBlur stdDeviation="2"/>
            <feComposite in2="hardAlpha" operator="out"/>
            <feColorMatrix values="0 0 0 0 0 0 0 0 0 0 0 0 0 0 0 0 0 0 0.25 0"/>
            <feBlend in2="BackgroundImageFix" result="effect1_dropShadow_530_799"/>
            <feBlend in="SourceGraphic" in2="effect1_dropShadow_530_799" result="shape"/>
        </filter>
    </defs>
</svg>
