<svg width="120" height="138" viewBox="0 0 120 138" fill="none" xmlns="http://www.w3.org/2000/svg">
    <g filter="url(#cafdtdtzga)">
        <rect x="4" width="112" height="130" rx="22" fill="url(#61nmtxhnfb)" shape-rendering="crispEdges"/>
    </g>
    <g clip-path="url(#jzywsglz8c)">
        <path d="M56.597 102.061H5v.246h51.597v-.246z" fill="#3F3D56"/>
        <path d="M18.116 101.201h1.467l.698-6.222h-2.165v6.222z" fill="#FFB8B8"/>
        <path d="M22.412 102.699h-4.61v-1.959h2.829c.472 0 .925.206 1.26.574.334.367.521.865.521 1.385z" fill="#F5FCFD"/>
        <path d="m10.31 100.891 1.455.213 1.44-6.066-2.147-.314-.748 6.167z" fill="#FFB8B8"/>
        <path d="m14.39 103-4.571-.67.235-1.942 2.805.412c.468.068.893.339 1.18.751.287.413.413.934.35 1.449z" fill="#F5FCFD"/>
        <path d="m12.395 75.504 8.256.395-.358 23.025-2.154-.263-1.676-15.657-3.949 16.71-2.154-.395 2.035-23.815z" fill="#3F3D56"/>
        <path d="m17.9 61.82-2.873-.645-1.795 14.46s5.266 3.816 6.94-.131L17.9 61.82z" fill="#1876D0"/>
        <path d="M16.647 60.122c1.623 0 2.939-1.447 2.939-3.232 0-1.785-1.316-3.232-2.94-3.232-1.623 0-2.939 1.447-2.939 3.232 0 1.785 1.316 3.232 2.94 3.232z" fill="#FFB8B8"/>
        <path d="m15.027 61.03-4.188 1.448s2.034 11.184-1.316 16.973c0 0 4.188 4.869 5.983-6.052 0 0 1.436-8.816-.479-12.368zM17.9 61.82l3.11 2.105s1.676 15.395 0 16.842C19.335 82.214 17.9 61.82 17.9 61.82z" fill="#3F3D56"/>
        <path d="M22.304 83a1.336 1.336 0 0 1-.291-.476 1.442 1.442 0 0 1 .064-1.118c.084-.17.201-.317.343-.431l-1.265-4.492 2.134.682.874 4.16c.16.275.221.604.175.926a1.365 1.365 0 0 1-.428.82 1.14 1.14 0 0 1-.815.3 1.158 1.158 0 0 1-.79-.372zM11.555 81.7a1.293 1.293 0 0 1-.344-.43 1.442 1.442 0 0 1-.067-1.117c.064-.18.163-.343.29-.477L9.658 75.4l2.196.375 1.351 4.003c.19.25.29.568.281.894a1.401 1.401 0 0 1-.329.873 1.17 1.17 0 0 1-.773.412 1.132 1.132 0 0 1-.828-.256z" fill="#FFB8B8"/>
        <path d="m11.916 62.61-1.077-.132-2.752 9.868 2.752 6.842 2.154-1.447-2.393-5.658 1.914-6.052-.598-3.422zM20.412 63.794l.599.131 2.871 15.395-1.914.658-2.274-9.08.718-7.104zM14.627 58.217c.04-.317.154-.618.33-.873.178-.254.412-.454.68-.58.566-.254 1.204-.147 1.814-.098.61.05 1.289.007 1.729-.46.402-.426.492-1.134.298-1.71-.194-.576-.633-1.023-1.133-1.298a4.536 4.536 0 0 0-1.612-.468c-.815-.109-1.652-.122-2.446.105-.795.228-.59.717-1.055 1.46-.466.744-.605 1.757-.25 2.57.237.545.663.958 1.077 1.354" fill="#3F3D56"/>
        <path d="M80.369 93.88v-.246c.446 0 .898-.01 1.345-.03l.01.246c-.45.02-.906.03-1.355.03zm-1.355-.028c-.448-.02-.903-.049-1.352-.088l.017-.245c.446.038.898.067 1.344.087l-.009.246zm4.062-.09-.018-.247c.445-.039.896-.089 1.339-.148l.027.245c-.447.06-.9.11-1.348.15zm-6.762-.145a31.167 31.167 0 0 1-1.342-.206l.035-.244c.44.078.889.147 1.333.205l-.026.245zm9.451-.213-.035-.243c.44-.079.885-.168 1.323-.266l.045.242c-.441.098-.89.188-1.333.267zm-12.126-.26a31.276 31.276 0 0 1-1.323-.324l.054-.24c.433.117.875.225 1.313.323l-.044.242zm14.781-.334-.053-.24c.434-.117.871-.246 1.3-.382l.062.237c-.431.137-.872.267-1.309.385zm-17.413-.374a31.735 31.735 0 0 1-1.294-.442l.071-.234c.423.155.856.303 1.285.439l-.062.237zm20.015-.455-.07-.234c.423-.156.85-.323 1.267-.497l.08.23c-.42.176-.85.344-1.277.501zm-22.589-.487c-.42-.176-.845-.363-1.26-.558l.088-.227c.412.194.834.38 1.252.554l-.08.23zm25.119-.57-.088-.226c.41-.193.822-.397 1.223-.607l.097.223c-.405.211-.82.417-1.232.61zm-27.617-.6a32.296 32.296 0 0 1-1.214-.668l.104-.218c.396.228.801.451 1.206.663l-.096.222zm30.058-.676-.105-.218c.396-.229.791-.469 1.177-.714l.112.214c-.388.246-.786.488-1.184.718zm-32.46-.712a33.188 33.188 0 0 1-1.161-.773l.12-.208c.377.262.764.52 1.153.767l-.113.214zm34.801-.777-.12-.209c.376-.262.754-.536 1.121-.816l.128.203c-.37.282-.75.558-1.129.822zm-37.093-.819a33.946 33.946 0 0 1-1.1-.872l.135-.197c.356.295.724.586 1.092.866l-.127.203zm39.32-.874-.135-.197c.355-.294.711-.6 1.058-.912l.142.19a34.47 34.47 0 0 1-1.065.92zm-41.487-.918a35.022 35.022 0 0 1-1.032-.966l.149-.184c.334.325.68.648 1.025.959l-.142.19zm43.583-.965-.148-.185c.334-.326.667-.663.989-1.003l.155.178c-.324.342-.659.682-.996 1.01zm-45.611-1.011a36.357 36.357 0 0 1-.958-1.053l.161-.171c.31.354.63.706.952 1.046l-.155.178zm47.565-1.053-.161-.17c.309-.354.616-.72.913-1.088l.168.164c-.299.37-.608.739-.92 1.094zm-49.442-1.095c-.3-.37-.595-.752-.879-1.133l.174-.156c.282.379.575.758.872 1.126l-.167.163zm51.241-1.134-.174-.156c.284-.38.563-.773.832-1.164l.179.148c-.27.395-.552.789-.837 1.172zm-52.956-1.17c-.27-.395-.537-.8-.792-1.207l.184-.14c.254.403.519.806.787 1.198l-.179.149zm54.587-1.21-.185-.141c.255-.405.506-.82.744-1.235l.19.132c-.241.417-.493.835-.749 1.243zm-56.127-1.237c-.24-.417-.477-.845-.702-1.272l.194-.124c.224.425.459.85.697 1.264l-.19.132zm57.579-1.283-.194-.123c.225-.427.444-.864.652-1.298l.198.115c-.209.437-.43.877-.656 1.306zM50.558 74.1a38.538 38.538 0 0 1-.606-1.33l.203-.105c.191.442.394.887.601 1.32l-.198.115zm60.199-1.35-.203-.105c.192-.445.379-.9.554-1.352l.207.096a39.84 39.84 0 0 1-.558 1.361zm-61.361-1.333a38.986 38.986 0 0 1-.506-1.378l.21-.088c.157.457.326.917.502 1.368l-.206.098zm62.426-1.413-.209-.087c.159-.462.311-.932.453-1.398l.212.078c-.142.47-.295.943-.456 1.407zm-63.389-1.368a39.493 39.493 0 0 1-.404-1.422l.216-.069c.124.472.26.947.401 1.413l-.212.078zm64.248-1.462-.216-.068c.124-.47.241-.952.348-1.43l.218.059c-.108.481-.226.966-.35 1.44zm-65.003-1.399c-.107-.48-.208-.97-.298-1.453l.22-.05c.09.481.19.967.296 1.444l-.218.06zm65.649-1.493-.22-.05c.089-.48.17-.97.241-1.455l.222.039c-.072.489-.154.982-.243 1.466zm-66.19-1.426a40.805 40.805 0 0 1-.19-1.475l.222-.03c.054.49.117.982.189 1.466l-.222.04zm66.621-1.516-.223-.03c.054-.487.099-.983.134-1.471l.224.019c-.036.492-.081.99-.135 1.482zM46.81 59.9a40.968 40.968 0 0 1-.082-1.488l.224-.01c.018.491.046.988.082 1.477l-.224.02zm67.163-1.529-.224-.01c.018-.491.027-.989.027-1.48v-.08H114v.08c0 .494-.009.995-.027 1.49zm-67.049-1.448H46.7v-.042c0-.48.008-.968.025-1.448l.224.01c-.016.476-.025.96-.025 1.439v.04zm66.822-1.602c-.019-.49-.046-.987-.083-1.477l.224-.02c.036.493.064.994.083 1.487l-.224.01zm-66.718-1.355-.224-.02c.036-.493.08-.992.133-1.482l.223.03c-.052.486-.097.981-.132 1.472zm66.499-1.594c-.055-.487-.118-.98-.191-1.465l.222-.04c.072.489.137.985.191 1.475l-.222.03zm-66.181-1.345-.221-.039c.07-.488.152-.981.24-1.465l.22.048c-.088.481-.168.971-.24 1.456zm65.746-1.576c-.09-.482-.19-.967-.297-1.443l.218-.06c.108.48.208.969.299 1.454l-.22.05zm-65.214-1.324-.218-.058c.107-.48.224-.965.349-1.44l.215.068c-.123.472-.24.953-.346 1.43zm64.567-1.547a40.377 40.377 0 0 0-.403-1.413l.213-.078c.143.469.279.947.405 1.422l-.215.069zm-63.822-1.297-.213-.077c.142-.47.295-.944.454-1.408l.21.087c-.158.461-.31.932-.451 1.398zm62.964-1.508a38.345 38.345 0 0 0-.504-1.368l.207-.097c.176.451.347.915.507 1.377l-.21.087zm-62.01-1.267-.206-.096c.176-.456.363-.914.556-1.362l.203.106c-.192.445-.378.9-.553 1.352zm60.952-1.446a36.697 36.697 0 0 0-.603-1.32l.199-.115c.209.437.414.884.607 1.329l-.203.106zm-59.797-1.233-.199-.114c.21-.438.43-.878.655-1.307l.194.123c-.223.426-.442.863-.65 1.298zm58.543-1.379c-.224-.424-.459-.849-.698-1.262l.189-.133c.241.416.477.844.703 1.271l-.194.124zM52.08 37.263l-.19-.132c.24-.418.492-.837.748-1.244l.184.14c-.253.405-.503.82-.742 1.236zm55.753-1.306c-.255-.404-.52-.807-.789-1.198l.179-.149c.271.394.538.8.794 1.206l-.184.14zM53.61 34.825l-.18-.149c.27-.395.552-.79.836-1.173l.174.156c-.282.38-.562.773-.83 1.166zm52.603-1.23c-.283-.379-.577-.757-.874-1.124l.168-.164c.298.37.594.75.879 1.132l-.173.157zm-50.9-1.064-.169-.164c.298-.37.607-.738.919-1.095l.162.17c-.31.355-.617.721-.913 1.089zm49.112-1.146c-.31-.354-.631-.706-.953-1.045l.155-.178c.324.341.647.695.96 1.052l-.162.17zm-47.25-.99-.155-.178c.324-.342.658-.682.995-1.01l.149.184c-.334.326-.667.664-.989 1.004zm45.307-1.058a35.51 35.51 0 0 0-1.027-.958l.142-.191c.348.312.696.636 1.033.964l-.148.185zm-43.295-.906-.142-.191a34.47 34.47 0 0 1 1.065-.92l.135.197c-.356.295-.712.602-1.058.914zm41.207-.965a33.156 33.156 0 0 0-1.093-.864l.127-.204c.37.281.741.574 1.101.871l-.135.198zm-39.06-.816-.127-.202c.37-.282.749-.559 1.127-.823l.12.208a33.27 33.27 0 0 0-1.12.817zm36.843-.865c-.379-.262-.767-.52-1.154-.766l.112-.213c.39.247.78.506 1.162.77l-.12.21zm-34.574-.719-.112-.213c.388-.248.786-.49 1.183-.72l.105.218c-.395.229-.79.47-1.176.715zm32.24-.761c-.397-.228-.803-.45-1.208-.661l.096-.223c.408.212.817.436 1.215.665l-.104.219zm-29.864-.617-.097-.222c.405-.213.82-.419 1.232-.613l.088.227c-.41.193-.821.398-1.223.608zm27.426-.652a31.62 31.62 0 0 0-1.252-.552l.08-.23c.42.175.845.361 1.26.555l-.088.227zm-24.958-.51-.08-.23c.42-.176.849-.345 1.275-.502l.072.233c-.424.157-.85.325-1.267.5zm22.434-.537a31.067 31.067 0 0 0-1.286-.438l.062-.237c.432.137.868.285 1.294.44l-.07.235zm-19.883-.404-.063-.236c.432-.139.872-.269 1.309-.388l.054.24c-.434.118-.871.247-1.3.384zm17.296-.413a30.594 30.594 0 0 0-1.314-.321l.045-.242c.441.097.886.206 1.322.323l-.053.24zm-14.684-.297-.045-.242c.44-.099.889-.19 1.333-.269l.036.244c-.441.079-.887.169-1.324.267zm12.046-.287a30.61 30.61 0 0 0-1.333-.204l.026-.244c.447.058.898.127 1.342.204l-.035.244zm-9.39-.189-.027-.245c.447-.06.9-.11 1.348-.15l.018.246c-.445.04-.895.09-1.339.149zm6.718-.16a30.84 30.84 0 0 0-1.344-.085l.008-.246c.45.019.905.048 1.353.086l-.017.246zm-4.035-.08-.01-.246c.45-.02.905-.031 1.355-.032v.247c-.447 0-.9.011-1.345.031z" fill="#CCC"/>
        <path d="M68.468 79.972c11.956 0 21.648-10.657 21.648-23.804 0-13.146-9.692-23.803-21.648-23.803S46.819 43.022 46.819 56.168s9.693 23.804 21.648 23.804z" fill="#3F3D56"/>
        <path d="M60.784 73.558c6.35 0 11.497-7.786 11.497-17.39 0-9.604-5.147-17.39-11.497-17.39s-11.497 7.786-11.497 17.39c0 9.604 5.147 17.39 11.497 17.39z" fill="#fff"/>
        <path d="M56.973 65.402c1.772 0 3.209-2.484 3.209-5.55 0-3.065-1.437-5.55-3.21-5.55-1.771 0-3.208 2.485-3.208 5.55 0 3.066 1.437 5.55 3.209 5.55z" fill="#3F3D56"/>
        <path d="M111 45.218c1.177 0 2.131-1.049 2.131-2.343s-.954-2.343-2.131-2.343c-1.177 0-2.131 1.049-2.131 2.343s.954 2.343 2.131 2.343zM86.382 23.907c1.735 0 3.14-1.547 3.14-3.454 0-1.907-1.405-3.453-3.14-3.453-1.734 0-3.14 1.546-3.14 3.453 0 1.907 1.406 3.454 3.14 3.454zM84.302 95.835c1.176 0 2.13-1.049 2.13-2.343s-.954-2.343-2.13-2.343c-1.178 0-2.132 1.049-2.132 2.343s.954 2.343 2.132 2.343z" fill="#1876D0"/>
    </g>
    <defs>
        <linearGradient id="61nmtxhnfb" x1="111.459" y1="130" x2="9.533" y2="28.597" gradientUnits="userSpaceOnUse">
            <stop stop-color="#1876D0"/>
            <stop offset="1" stop-color="#A4CEF7" stop-opacity="0"/>
        </linearGradient>
        <clipPath id="jzywsglz8c">
            <path fill="#fff" transform="translate(5 17)" d="M0 0h109v86H0z"/>
        </clipPath>
        <filter id="cafdtdtzga" x="0" y="0" width="120" height="138" filterUnits="userSpaceOnUse" color-interpolation-filters="sRGB">
            <feFlood flood-opacity="0" result="BackgroundImageFix"/>
            <feColorMatrix in="SourceAlpha" values="0 0 0 0 0 0 0 0 0 0 0 0 0 0 0 0 0 0 127 0" result="hardAlpha"/>
            <feOffset dy="4"/>
            <feGaussianBlur stdDeviation="2"/>
            <feComposite in2="hardAlpha" operator="out"/>
            <feColorMatrix values="0 0 0 0 0 0 0 0 0 0 0 0 0 0 0 0 0 0 0.25 0"/>
            <feBlend in2="BackgroundImageFix" result="effect1_dropShadow_530_766"/>
            <feBlend in="SourceGraphic" in2="effect1_dropShadow_530_766" result="shape"/>
        </filter>
    </defs>
</svg>
