<svg width="16" height="21" viewBox="0 0 16 21" fill="none" xmlns="http://www.w3.org/2000/svg">
<path d="M7.99995 9.14276C8.90408 9.14276 9.78791 8.87465 10.5397 8.37234C11.2914 7.87003 11.8774 7.15608 12.2234 6.32077C12.5694 5.48546 12.6599 4.56631 12.4835 3.67955C12.3071 2.79279 11.8717 1.97825 11.2324 1.33893C10.5931 0.699609 9.77854 0.264227 8.89178 0.0878398C8.00502 -0.0885479 7.08587 0.00198069 6.25056 0.347978C5.41525 0.693974 4.7013 1.2799 4.19899 2.03166C3.69668 2.78342 3.42857 3.66725 3.42857 4.57138C3.42857 5.78379 3.9102 6.94654 4.7675 7.80383C5.6248 8.66113 6.78755 9.14276 7.99995 9.14276ZM7.99995 2.28569C8.45202 2.28569 8.89393 2.41975 9.26981 2.6709C9.64569 2.92205 9.93865 3.27903 10.1117 3.69669C10.2847 4.11434 10.3299 4.57392 10.2417 5.0173C10.1535 5.46068 9.93584 5.86795 9.61618 6.18761C9.29652 6.50727 8.88925 6.72496 8.44587 6.81315C8.00249 6.90135 7.54291 6.85608 7.12526 6.68308C6.7076 6.51009 6.35062 6.21712 6.09947 5.84124C5.84831 5.46536 5.71426 5.02345 5.71426 4.57138C5.71426 3.96518 5.95507 3.3838 6.38372 2.95515C6.81237 2.5265 7.39375 2.28569 7.99995 2.28569Z" fill="#231F20" fill-opacity="0.77"/>
<path d="M7.99991 11.4284C5.8782 11.4284 3.8434 12.2713 2.34312 13.7716C0.842846 15.2718 0 17.3067 0 19.4284C0 19.7315 0.120407 20.0221 0.334732 20.2365C0.549057 20.4508 0.839743 20.5712 1.14284 20.5712C1.44595 20.5712 1.73663 20.4508 1.95096 20.2365C2.16528 20.0221 2.28569 19.7315 2.28569 19.4284C2.28569 17.9129 2.88772 16.4594 3.95935 15.3878C5.03097 14.3162 6.48441 13.7141 7.99991 13.7141C9.51542 13.7141 10.9689 14.3162 12.0405 15.3878C13.1121 16.4594 13.7141 17.9129 13.7141 19.4284C13.7141 19.7315 13.8345 20.0221 14.0489 20.2365C14.2632 20.4508 14.5539 20.5712 14.857 20.5712C15.1601 20.5712 15.4508 20.4508 15.6651 20.2365C15.8794 20.0221 15.9998 19.7315 15.9998 19.4284C15.9998 17.3067 15.157 15.2718 13.6567 13.7716C12.1564 12.2713 10.1216 11.4284 7.99991 11.4284Z" fill="#231F20" fill-opacity="0.77"/>
</svg>
