<svg width="120" height="138" viewBox="0 0 120 138" fill="none" xmlns="http://www.w3.org/2000/svg">
<g filter="url(#filter0_d_530_766)">
<rect x="4" width="112" height="130" rx="22" fill="url(#paint0_linear_530_766)" shape-rendering="crispEdges"/>
</g>
<g clip-path="url(#clip0_530_766)">
<path d="M56.5967 102.061H5V102.307H56.5967V102.061Z" fill="#3F3D56"/>
<path d="M18.116 101.201H19.5829L20.2809 94.9791H18.1157L18.116 101.201Z" fill="#FFB8B8"/>
<path d="M22.4123 102.699L17.8016 102.699L17.8015 100.74L20.6308 100.74C21.1033 100.74 21.5564 100.946 21.8905 101.314C22.2246 101.681 22.4123 102.179 22.4123 102.699Z" fill="#F5FCFD"/>
<path d="M10.3105 100.891L11.7648 101.104L13.2046 95.0382L11.0584 94.7236L10.3105 100.891Z" fill="#FFB8B8"/>
<path d="M14.3892 103L9.81894 102.33L10.0544 100.388L12.8589 100.8C13.3272 100.868 13.7515 101.139 14.0385 101.551C14.3255 101.964 14.4517 102.485 14.3892 103Z" fill="#F5FCFD"/>
<path d="M12.3947 75.504L20.6515 75.8987L20.2925 98.9245L18.1386 98.6614L16.4633 83.0038L12.5144 99.714L10.3604 99.3193L12.3947 75.504Z" fill="#3F3D56"/>
<path d="M17.8993 61.82L15.0274 61.1749L13.2324 75.6355C13.2324 75.6355 18.4976 79.4512 20.1729 75.5039L17.8993 61.82Z" fill="#1876D0"/>
<path d="M16.6466 60.1217C18.2698 60.1217 19.5856 58.6748 19.5856 56.8901C19.5856 55.1053 18.2698 53.6584 16.6466 53.6584C15.0234 53.6584 13.7075 55.1053 13.7075 56.8901C13.7075 58.6748 15.0234 60.1217 16.6466 60.1217Z" fill="#FFB8B8"/>
<path d="M15.0274 61.0306L10.8391 62.4779C10.8391 62.4779 12.8734 73.6619 9.52284 79.4512C9.52284 79.4512 13.7111 84.3195 15.506 73.3987C15.506 73.3987 16.942 64.5831 15.0274 61.0306Z" fill="#3F3D56"/>
<path d="M17.8993 61.82L21.0105 63.9252C21.0105 63.9252 22.6858 79.3196 21.0105 80.767C19.3352 82.2143 17.8993 61.82 17.8993 61.82Z" fill="#3F3D56"/>
<path d="M22.3041 82.9994C22.1765 82.8662 22.0772 82.7038 22.0129 82.5238C21.9486 82.3437 21.921 82.1503 21.9321 81.9573C21.9431 81.7642 21.9925 81.5762 22.0768 81.4064C22.1611 81.2366 22.2782 81.0893 22.4199 80.9746L21.155 76.4832L23.2889 77.1647L24.163 81.3254C24.3223 81.5999 24.3845 81.9291 24.3379 82.2507C24.2912 82.5723 24.1389 82.8639 23.9097 83.0703C23.6806 83.2766 23.3906 83.3834 23.0947 83.3703C22.7987 83.3573 22.5174 83.2253 22.3041 82.9994Z" fill="#FFB8B8"/>
<path d="M11.5554 81.7005C11.4134 81.5863 11.2959 81.4392 11.2112 81.2697C11.1265 81.1002 11.0767 80.9123 11.0651 80.7193C11.0536 80.5262 11.0807 80.3328 11.1446 80.1526C11.2084 79.9723 11.3074 79.8096 11.4346 79.676L9.65715 75.3996L11.8529 75.7751L13.2041 79.7785C13.3941 80.0284 13.4942 80.3461 13.4853 80.6717C13.4765 80.9972 13.3593 81.3078 13.1561 81.5447C12.9529 81.7816 12.6777 81.9283 12.3827 81.957C12.0877 81.9857 11.7933 81.8945 11.5554 81.7005Z" fill="#FFB8B8"/>
<path d="M11.9161 62.6095L10.8391 62.478L8.08684 72.3462L10.8391 79.1881L12.993 77.7408L10.5998 72.083L12.5144 66.0305L11.9161 62.6095Z" fill="#3F3D56"/>
<path d="M20.4122 63.7937L21.0105 63.9253L23.8824 79.3197L21.9678 79.9776L19.6942 70.8988L20.4122 63.7937Z" fill="#3F3D56"/>
<path d="M14.627 58.217C14.6666 57.8995 14.7806 57.5987 14.9577 57.3441C15.1348 57.0896 15.3691 56.89 15.6374 56.7649C16.2032 56.5098 16.8413 56.6175 17.4512 56.6663C18.061 56.7151 18.7399 56.6727 19.18 56.206C19.5821 55.7796 19.6725 55.072 19.4783 54.4961C19.2842 53.9202 18.8446 53.4731 18.3452 53.198C17.8363 52.9414 17.291 52.7829 16.7332 52.7296C15.9182 52.6213 15.0813 52.6075 14.2869 52.8354C13.4925 53.0633 13.6974 53.5517 13.2319 54.2952C12.7664 55.0388 12.6269 56.0517 12.9818 56.8657C13.2193 57.4104 13.6448 57.8226 14.0593 58.2191" fill="#3F3D56"/>
<path d="M80.3686 93.8806L80.3685 93.634C80.8146 93.6339 81.2673 93.6237 81.7144 93.6041L81.7234 93.8505C81.2734 93.8704 80.8176 93.8805 80.3686 93.8806ZM79.0141 93.8521C78.5657 93.8328 78.1107 93.8033 77.6618 93.7644L77.6794 93.5185C78.1254 93.5573 78.5774 93.5865 79.0229 93.6057L79.0141 93.8521ZM83.0758 93.7612L83.0579 93.5152C83.5031 93.4761 83.9536 93.4263 84.3969 93.3674L84.4239 93.6124C83.9775 93.6717 83.524 93.7217 83.0758 93.7612ZM76.3136 93.6174C75.8663 93.5585 75.4149 93.489 74.9718 93.4108L75.0074 93.1673C75.4474 93.245 75.8959 93.314 76.3402 93.3724L76.3136 93.6174ZM85.7653 93.4042L85.7295 93.1606C86.1694 93.0825 86.6149 92.993 87.0534 92.895L87.0981 93.1366C86.6567 93.2354 86.2082 93.3254 85.7653 93.4042ZM73.6387 93.1449C73.1972 93.0466 72.7524 92.9371 72.3164 92.8198L72.3698 92.5801C72.8028 92.6968 73.2447 92.8055 73.6832 92.903L73.6387 93.1449ZM88.4201 92.8098L88.3665 92.5704C88.8008 92.4528 89.2382 92.324 89.6665 92.1876L89.7289 92.4246C89.2977 92.5619 88.8573 92.6915 88.4201 92.8098ZM71.0072 92.4361C70.5746 92.2988 70.1392 92.1501 69.7132 91.9943L69.7841 91.7601C70.2073 91.915 70.6397 92.0627 71.0694 92.199L71.0072 92.4361ZM91.0224 91.981L90.9513 91.7471C91.3747 91.5915 91.8012 91.4242 92.2188 91.2497L92.2986 91.4802C91.8781 91.6559 91.4487 91.8244 91.0224 91.981ZM68.4331 91.4936C68.0122 91.3182 67.5883 91.1308 67.1731 90.9363L67.261 90.7094C67.6734 90.9026 68.0946 91.0888 68.5126 91.2628L68.4331 91.4936ZM93.5517 90.9247L93.4636 90.6978C93.8737 90.5052 94.2855 90.3011 94.6874 90.0909L94.7838 90.3137C94.3791 90.5252 93.9645 90.7308 93.5517 90.9247ZM65.9349 90.3235C65.5274 90.1108 65.1189 89.8863 64.7207 89.6561L64.8251 89.4379C65.2206 89.6664 65.6263 89.8894 66.0311 90.1007L65.9349 90.3235ZM95.993 89.6483L95.8885 89.43C96.2836 89.2014 96.6793 88.9612 97.0647 88.7161L97.1771 88.9295C96.7891 89.1763 96.3907 89.4181 95.993 89.6483ZM63.5325 88.9355C63.1415 88.687 62.7511 88.4271 62.3719 88.163L62.492 87.9546C62.8686 88.217 63.2564 88.4752 63.6447 88.7221L63.5325 88.9355ZM98.3343 88.1587L98.2143 87.9503C98.5903 87.6883 98.9675 87.4138 99.3352 87.1343L99.4627 87.3371C99.0926 87.6186 98.7129 87.895 98.3343 88.1587ZM61.2409 87.34C60.8699 87.0582 60.4999 86.7648 60.141 86.4679L60.2759 86.2708C60.6324 86.5657 60.9999 86.8571 61.3684 87.1372L61.2409 87.34ZM100.561 86.4663L100.426 86.2693C100.781 85.9752 101.137 85.6681 101.484 85.3567L101.626 85.5477C101.277 85.8612 100.919 86.1703 100.561 86.4663ZM59.0742 85.5479C58.7259 85.235 58.3786 84.9101 58.0419 84.582L58.1907 84.3975C58.5252 84.7233 58.8701 85.0462 59.2161 85.3569L59.0742 85.5479ZM102.657 84.5826L102.509 84.3981C102.843 84.0724 103.176 83.7348 103.498 83.3948L103.653 83.5728C103.329 83.915 102.994 84.2548 102.657 84.5826ZM57.0458 83.5717C56.7223 83.2299 56.3998 82.8756 56.0876 82.5186L56.2493 82.3476C56.5595 82.7023 56.8798 83.0543 57.2013 83.3937L57.0458 83.5717ZM104.611 82.5195L104.45 82.3485C104.759 81.9949 105.066 81.6291 105.363 81.2612L105.531 81.425C105.232 81.7952 104.923 82.1635 104.611 82.5195ZM55.1686 81.4245C54.8695 81.0538 54.574 80.6723 54.2903 80.2908L54.464 80.1347C54.7458 80.5137 55.0393 80.8926 55.3364 81.2607L55.1686 81.4245ZM106.41 80.2905L106.236 80.1344C106.52 79.7533 106.799 79.3614 107.068 78.9696L107.247 79.118C106.977 79.5125 106.695 79.9069 106.41 80.2905ZM53.4542 79.1198C53.1838 78.7251 52.9171 78.3192 52.6616 77.9132L52.8461 77.7728C53.0999 78.1762 53.3648 78.5794 53.6334 78.9714L53.4542 79.1198ZM108.041 77.9091L107.856 77.7689C108.111 77.3638 108.362 76.9482 108.6 76.5339L108.79 76.6659C108.549 77.083 108.297 77.5013 108.041 77.9091ZM51.9138 76.6729C51.6735 76.2562 51.4374 75.8282 51.2122 75.4009L51.4063 75.2773C51.63 75.7018 51.8645 76.1268 52.1032 76.5408L51.9138 76.6729ZM109.493 75.3903L109.299 75.2667C109.524 74.84 109.743 74.4034 109.951 73.9692L110.149 74.0841C109.94 74.5212 109.719 74.9607 109.493 75.3903ZM50.5579 74.099C50.3489 73.6627 50.1451 73.2155 49.9521 72.7698L50.1546 72.6638C50.3464 73.1065 50.5488 73.5507 50.7564 73.9841L50.5579 74.099ZM110.757 72.7495L110.554 72.6435C110.746 72.1993 110.933 71.7445 111.108 71.2917L111.315 71.3885C111.138 71.8444 110.95 72.3023 110.757 72.7495ZM49.3957 71.4156C49.219 70.9613 49.0488 70.4978 48.8897 70.038L49.0993 69.9503C49.2574 70.4069 49.4264 70.8673 49.6019 71.3185L49.3957 71.4156ZM111.822 70.0032L111.613 69.9157C111.772 69.4543 111.924 68.984 112.066 68.518L112.278 68.596C112.136 69.0653 111.983 69.5386 111.822 70.0032ZM48.4335 68.635C48.2907 68.1662 48.1548 67.6877 48.0295 67.213L48.245 67.1443C48.3694 67.6157 48.5044 68.091 48.6463 68.5568L48.4335 68.635ZM112.681 67.1732L112.465 67.1048C112.589 66.6341 112.706 66.1532 112.813 65.6752L113.031 65.7339C112.923 66.2152 112.806 66.6995 112.681 67.1732ZM47.6783 65.7741C47.5705 65.2937 47.4704 64.8049 47.3804 64.3208L47.6003 64.2714C47.6896 64.7522 47.7891 65.238 47.8961 65.715L47.6783 65.7741ZM113.327 64.2805L113.107 64.2313C113.196 63.7509 113.277 63.261 113.348 62.7755L113.57 62.8148C113.498 63.3035 113.416 63.7966 113.327 64.2805ZM47.1363 62.8554C47.0644 62.3684 47.0005 61.8722 46.9462 61.3804L47.1689 61.3508C47.2228 61.8393 47.2864 62.3322 47.3578 62.8159L47.1363 62.8554ZM113.758 61.3393L113.535 61.3099C113.589 60.8216 113.634 60.3262 113.669 59.8375L113.893 59.857C113.857 60.349 113.812 60.8477 113.758 61.3393ZM46.8102 59.8984C46.774 59.4057 46.7464 58.9054 46.7282 58.4113L46.9523 58.4013C46.9704 58.8921 46.9979 59.3891 47.0338 59.8785L46.8102 59.8984ZM113.973 58.3702L113.749 58.3604C113.767 57.8689 113.776 57.3711 113.776 56.8808L113.776 56.7991H114L114 56.8803C114 57.3743 113.991 57.8753 113.973 58.3702ZM46.9242 56.9217H46.6999L46.6999 56.8803C46.6999 56.3991 46.7084 55.9118 46.7252 55.4325L46.9493 55.442C46.9327 55.9182 46.9243 56.4022 46.9243 56.8808L46.9242 56.9217ZM113.746 55.3199C113.727 54.8301 113.7 54.3331 113.663 53.8428L113.887 53.8227C113.923 54.3163 113.951 54.8166 113.97 55.3097L113.746 55.3199ZM47.028 53.9647L46.8043 53.9455C46.8396 53.4515 46.8844 52.9528 46.9374 52.4629L47.1602 52.4921C47.1075 52.9787 47.063 53.4742 47.028 53.9647ZM113.527 52.3706C113.472 51.8842 113.409 51.3913 113.336 50.9058L113.558 50.866C113.63 51.3547 113.695 51.8509 113.749 52.3407L113.527 52.3706ZM47.3459 51.0265L47.1245 50.9875C47.1955 50.4991 47.2767 50.0058 47.3657 49.5215L47.5855 49.5703C47.4972 50.0514 47.4166 50.5413 47.3459 51.0265ZM113.092 49.4505C113.002 48.9685 112.902 48.483 112.795 48.0073L113.013 47.9479C113.121 48.4268 113.221 48.9157 113.312 49.4009L113.092 49.4505ZM47.8784 48.126L47.6604 48.0675C47.7671 47.5874 47.8843 47.103 48.0088 46.6276L48.2243 46.6958C48.1007 47.168 47.9843 47.6492 47.8784 48.126ZM112.445 46.5785C112.32 46.1074 112.184 45.6323 112.042 45.1665L112.255 45.0879C112.398 45.5569 112.534 46.0352 112.66 46.5095L112.445 46.5785ZM48.6227 45.2824L48.4098 45.2046C48.5518 44.7349 48.7047 44.2613 48.8644 43.7969L49.0742 43.8841C48.9156 44.3454 48.7637 44.8159 48.6227 45.2824ZM111.587 43.7735C111.428 43.3147 111.258 42.8546 111.083 42.4058L111.29 42.3086C111.466 42.7604 111.637 43.2236 111.797 43.6855L111.587 43.7735ZM49.577 42.5075L49.3705 42.4109C49.5468 41.9552 49.7341 41.497 49.9272 41.0493L50.1299 41.1549C49.938 41.5997 49.752 42.0548 49.577 42.5075ZM110.529 41.0611C110.337 40.6189 110.135 40.175 109.926 39.7416L110.125 39.6264C110.334 40.0627 110.539 40.5096 110.732 40.9548L110.529 41.0611ZM50.7321 39.8284L50.5334 39.7139C50.7425 39.2756 50.9628 38.8359 51.188 38.4068L51.3824 38.5301C51.1586 38.9563 50.9398 39.3932 50.7321 39.8284ZM109.275 38.4495C109.051 38.0248 108.816 37.6 108.577 37.1867L108.766 37.0544C109.007 37.4704 109.243 37.8981 109.469 38.3255L109.275 38.4495ZM52.0796 37.2622L51.89 37.1303C52.1307 36.7119 52.3823 36.2933 52.6379 35.8862L52.8225 36.0263C52.5686 36.4308 52.3187 36.8465 52.0796 37.2622ZM107.833 35.9555C107.578 35.5523 107.313 35.1493 107.044 34.7579L107.223 34.6093C107.494 35.0033 107.761 35.409 108.017 35.815L107.833 35.9555ZM53.6099 34.8246L53.4305 34.6764C53.7009 34.2808 53.9821 33.8859 54.2664 33.5028L54.4403 33.6588C54.1578 34.0393 53.8784 34.4316 53.6099 34.8246ZM106.213 33.5956C105.93 33.216 105.636 32.8376 105.339 32.4707L105.507 32.3068C105.805 32.6761 106.101 33.0571 106.386 33.4393L106.213 33.5956ZM55.3124 32.5307L55.1444 32.3673C55.4423 31.9973 55.7512 31.6286 56.0627 31.2715L56.2246 31.4423C55.9152 31.797 55.6083 32.1633 55.3124 32.5307ZM104.425 31.3847C104.115 31.0306 103.794 30.679 103.472 30.3397L103.627 30.1616C103.951 30.5031 104.274 30.8571 104.587 31.2136L104.425 31.3847ZM57.1755 30.395L57.02 30.2172C57.3437 29.8747 57.6784 29.5346 58.0147 29.2062L58.1636 29.3906C57.8295 29.7168 57.4971 30.0548 57.1755 30.395ZM102.482 29.3372C102.146 29.0113 101.801 28.6889 101.455 28.379L101.597 28.1878C101.945 28.4998 102.293 28.8244 102.63 29.1524L102.482 29.3372ZM59.1873 28.4306L59.0451 28.2398C59.3931 27.9264 59.7513 27.6169 60.1096 27.3199L60.2447 27.5168C59.8887 27.8119 59.533 28.1193 59.1873 28.4306ZM100.394 27.4665C100.037 27.1712 99.6686 26.8802 99.3011 26.6015L99.4284 26.3984C99.7984 26.679 100.169 26.972 100.529 27.2693L100.394 27.4665ZM61.3345 26.6503L61.2067 26.4476C61.5765 26.1658 61.9558 25.889 62.3343 25.6247L62.4546 25.833C62.0786 26.0954 61.7018 26.3704 61.3345 26.6503ZM98.1767 25.7852C97.7985 25.5225 97.4104 25.2648 97.0231 25.0193L97.1352 24.8056C97.525 25.0528 97.9157 25.3122 98.2966 25.5766L98.1767 25.7852ZM63.6033 25.0661L63.4907 24.8526C63.8786 24.6053 64.2768 24.363 64.6741 24.1325L64.7788 24.3506C64.3841 24.5796 63.9886 24.8203 63.6033 25.0661ZM95.8421 24.3049C95.4459 24.0767 95.04 23.8542 94.6355 23.6436L94.7314 23.4206C95.1387 23.6326 95.5475 23.8566 95.9462 24.0864L95.8421 24.3049ZM65.9791 23.6883L65.8825 23.4656C66.2871 23.2535 66.7014 23.0474 67.1141 22.8531L67.2024 23.0798C66.7925 23.2728 66.3809 23.4775 65.9791 23.6883ZM93.405 23.0364C92.9927 22.8438 92.5714 22.6582 92.1528 22.4844L92.2321 22.2536C92.6535 22.4286 93.0777 22.6155 93.4927 22.8093L93.405 23.0364ZM68.4466 22.5264L68.3667 22.2958C68.7864 22.1199 69.2156 21.9509 69.6423 21.7935L69.7136 22.0274C69.2898 22.1837 68.8636 22.3516 68.4466 22.5264ZM90.8807 21.9886C90.4568 21.834 90.0242 21.6869 89.595 21.5514L89.657 21.3143C90.0891 21.4508 90.5245 21.5989 90.9513 21.7545L90.8807 21.9886ZM70.9981 21.5853L70.9354 21.3485C71.3668 21.2105 71.8071 21.0803 72.2438 20.9614L72.2977 21.2009C71.8639 21.3189 71.4266 21.4483 70.9981 21.5853ZM88.2942 21.1719C87.861 21.0557 87.419 20.9476 86.9804 20.8506L87.0247 20.6087C87.4662 20.7064 87.9112 20.8153 88.3473 20.9322L88.2942 21.1719ZM73.6104 20.8749L73.5654 20.6333C74.0051 20.5343 74.4535 20.4437 74.8979 20.364L74.9341 20.6075C74.4925 20.6866 74.0472 20.7766 73.6104 20.8749ZM85.656 20.588C85.2148 20.5107 84.7663 20.4421 84.3229 20.3845L84.3493 20.1395C84.7957 20.1976 85.2472 20.2665 85.6913 20.3445L85.656 20.588ZM76.2664 20.399L76.2392 20.1541C76.6855 20.0944 77.139 20.0437 77.5871 20.0037L77.6053 20.2496C77.1601 20.2894 76.7096 20.3396 76.2664 20.399ZM82.9836 20.2399C82.5389 20.2018 82.0868 20.173 81.64 20.1544L81.6485 19.9079C82.0983 19.9267 82.5533 19.9556 83.001 19.994L82.9836 20.2399ZM78.9487 20.1592L78.9395 19.9127C79.3881 19.8924 79.8438 19.8817 80.294 19.8808L80.2944 20.1275C79.8471 20.1283 79.3944 20.139 78.9487 20.1592Z" fill="#CCCCCC"/>
<path d="M68.4675 79.9716C80.4235 79.9716 90.1157 69.3145 90.1157 56.1683C90.1157 43.0221 80.4235 32.365 68.4675 32.365C56.5116 32.365 46.8193 43.0221 46.8193 56.1683C46.8193 69.3145 56.5116 79.9716 68.4675 79.9716Z" fill="#3F3D56"/>
<path d="M60.7841 73.5582C67.1338 73.5582 72.2812 65.7725 72.2812 56.1683C72.2812 46.5641 67.1338 38.7783 60.7841 38.7783C54.4344 38.7783 49.287 46.5641 49.287 56.1683C49.287 65.7725 54.4344 73.5582 60.7841 73.5582Z" fill="white"/>
<path d="M56.9729 65.4024C58.745 65.4024 60.1816 62.9176 60.1816 59.8524C60.1816 56.7872 58.745 54.3024 56.9729 54.3024C55.2008 54.3024 53.7642 56.7872 53.7642 59.8524C53.7642 62.9176 55.2008 65.4024 56.9729 65.4024Z" fill="#3F3D56"/>
<path d="M111 45.2184C112.177 45.2184 113.131 44.1693 113.131 42.8751C113.131 41.5809 112.177 40.5317 111 40.5317C109.823 40.5317 108.869 41.5809 108.869 42.8751C108.869 44.1693 109.823 45.2184 111 45.2184Z" fill="#1876D0"/>
<path d="M86.3822 23.9067C88.1167 23.9067 89.5228 22.3605 89.5228 20.4533C89.5228 18.5461 88.1167 17 86.3822 17C84.6476 17 83.2415 18.5461 83.2415 20.4533C83.2415 22.3605 84.6476 23.9067 86.3822 23.9067Z" fill="#1876D0"/>
<path d="M84.3015 95.8352C85.4785 95.8352 86.4327 94.7861 86.4327 93.4919C86.4327 92.1977 85.4785 91.1486 84.3015 91.1486C83.1245 91.1486 82.1703 92.1977 82.1703 93.4919C82.1703 94.7861 83.1245 95.8352 84.3015 95.8352Z" fill="#1876D0"/>
</g>
<defs>
<filter id="filter0_d_530_766" x="0" y="0" width="120" height="138" filterUnits="userSpaceOnUse" color-interpolation-filters="sRGB">
<feFlood flood-opacity="0" result="BackgroundImageFix"/>
<feColorMatrix in="SourceAlpha" type="matrix" values="0 0 0 0 0 0 0 0 0 0 0 0 0 0 0 0 0 0 127 0" result="hardAlpha"/>
<feOffset dy="4"/>
<feGaussianBlur stdDeviation="2"/>
<feComposite in2="hardAlpha" operator="out"/>
<feColorMatrix type="matrix" values="0 0 0 0 0 0 0 0 0 0 0 0 0 0 0 0 0 0 0.25 0"/>
<feBlend mode="normal" in2="BackgroundImageFix" result="effect1_dropShadow_530_766"/>
<feBlend mode="normal" in="SourceGraphic" in2="effect1_dropShadow_530_766" result="shape"/>
</filter>
<linearGradient id="paint0_linear_530_766" x1="111.459" y1="130" x2="9.53268" y2="28.5973" gradientUnits="userSpaceOnUse">
<stop stop-color="#1876D0"/>
<stop offset="1" stop-color="#A4CEF7" stop-opacity="0"/>
</linearGradient>
<clipPath id="clip0_530_766">
<rect width="109" height="86" fill="white" transform="translate(5 17)"/>
</clipPath>
</defs>
</svg>
