<svg width="16" height="21" viewBox="0 0 16 21" fill="none" xmlns="http://www.w3.org/2000/svg">
<path d="M8.00001 9.14287C8.90416 9.14287 9.788 8.87476 10.5398 8.37244C11.2915 7.87013 11.8775 7.15617 12.2235 6.32085C12.5695 5.48553 12.66 4.56636 12.4836 3.67959C12.3072 2.79282 11.8718 1.97827 11.2325 1.33894C10.5932 0.699617 9.77863 0.264231 8.89186 0.0878408C8.00508 -0.0885489 7.08592 0.00198072 6.2506 0.347982C5.41528 0.693983 4.70132 1.27991 4.19901 2.03168C3.69669 2.78345 3.42858 3.66729 3.42858 4.57143C3.42858 5.78385 3.91021 6.94662 4.76752 7.80393C5.62483 8.66124 6.78759 9.14287 8.00001 9.14287ZM8.00001 2.28572C8.45209 2.28572 8.894 2.41977 9.26989 2.67093C9.64577 2.92209 9.93874 3.27907 10.1117 3.69673C10.2847 4.11439 10.33 4.57397 10.2418 5.01736C10.1536 5.46074 9.93592 5.86802 9.61626 6.18768C9.2966 6.50734 8.88932 6.72504 8.44593 6.81323C8.00255 6.90143 7.54297 6.85616 7.12531 6.68316C6.70765 6.51016 6.35067 6.21719 6.09951 5.84131C5.84835 5.46543 5.7143 5.02351 5.7143 4.57143C5.7143 3.96523 5.95511 3.38384 6.38377 2.95519C6.81242 2.52653 7.3938 2.28572 8.00001 2.28572Z" fill="#565353"/>
<path d="M8.00001 11.4286C5.87827 11.4286 3.84344 12.2714 2.34315 13.7717C0.842855 15.272 0 17.3069 0 19.4286C0 19.7317 0.120408 20.0224 0.334736 20.2367C0.549063 20.451 0.839753 20.5714 1.14286 20.5714C1.44596 20.5714 1.73665 20.451 1.95098 20.2367C2.16531 20.0224 2.28572 19.7317 2.28572 19.4286C2.28572 17.9131 2.88776 16.4596 3.95939 15.388C5.03103 14.3163 6.48448 13.7143 8.00001 13.7143C9.51553 13.7143 10.969 14.3163 12.0406 15.388C13.1123 16.4596 13.7143 17.9131 13.7143 19.4286C13.7143 19.7317 13.8347 20.0224 14.049 20.2367C14.2634 20.451 14.5541 20.5714 14.8572 20.5714C15.1603 20.5714 15.451 20.451 15.6653 20.2367C15.8796 20.0224 16 19.7317 16 19.4286C16 17.3069 15.1572 15.272 13.6569 13.7717C12.1566 12.2714 10.1217 11.4286 8.00001 11.4286Z" fill="#565353"/>
</svg>
