<svg width="24" height="24" viewBox="0 0 24 24" fill="none" xmlns="http://www.w3.org/2000/svg">
<g clip-path="url(#clip0_552_2032)">
<path d="M12 0C9.62663 0 7.30655 0.703788 5.33316 2.02236C3.35977 3.34094 1.8217 5.21509 0.913451 7.4078C0.00519937 9.60051 -0.232441 12.0133 0.230582 14.3411C0.693605 16.6689 1.83649 18.8071 3.51472 20.4853C5.19295 22.1635 7.33115 23.3064 9.65892 23.7694C11.9867 24.2324 14.3995 23.9948 16.5922 23.0866C18.7849 22.1783 20.6591 20.6402 21.9776 18.6668C23.2962 16.6935 24 14.3734 24 12C23.9965 8.81847 22.7311 5.76824 20.4814 3.51856C18.2318 1.26887 15.1815 0.0034741 12 0ZM12 22.875C9.84913 22.875 7.74656 22.2372 5.95818 21.0422C4.16979 19.8473 2.77592 18.1488 1.95282 16.1617C1.12971 14.1745 0.914351 11.9879 1.33397 9.87839C1.75358 7.76885 2.78932 5.83111 4.31022 4.31021C5.83112 2.78932 7.76886 1.75357 9.8784 1.33396C11.9879 0.914346 14.1745 1.12971 16.1617 1.95281C18.1488 2.77591 19.8473 4.16979 21.0422 5.95817C22.2372 7.74656 22.875 9.84913 22.875 12C22.8715 14.8832 21.7247 17.6472 19.686 19.6859C17.6472 21.7247 14.8832 22.8715 12 22.875Z" fill="#A7A7A7"/>
<path d="M17.2725 6.71062C17.167 6.60529 17.024 6.54612 16.875 6.54612C16.7259 6.54612 16.5829 6.60529 16.4775 6.71062L12 11.2031L7.52435 6.70312C7.41868 6.59745 7.27536 6.53809 7.12591 6.53809C6.97647 6.53809 6.83315 6.59745 6.72748 6.70312C6.6218 6.8088 6.56244 6.95212 6.56244 7.10156C6.56244 7.251 6.6218 7.39433 6.72748 7.5L11.205 12L6.72748 16.5C6.62205 16.6057 6.56293 16.7489 6.5631 16.8982C6.56328 17.0474 6.62274 17.1905 6.72841 17.2959C6.83409 17.4014 6.97731 17.4605 7.12658 17.4603C7.27584 17.4601 7.41893 17.4007 7.52435 17.295L12 12.7969L16.4775 17.2969C16.5831 17.4025 16.7265 17.4619 16.8759 17.4619C17.0254 17.4619 17.1687 17.4025 17.2744 17.2969C17.38 17.1912 17.4394 17.0479 17.4394 16.8984C17.4394 16.749 17.38 16.6057 17.2744 16.5L12.795 12L17.2744 7.5C17.3777 7.39452 17.4355 7.25262 17.4351 7.10493C17.4348 6.95724 17.3764 6.81561 17.2725 6.71062Z" fill="#A7A7A7"/>
</g>
<defs>
<clipPath id="clip0_552_2032">
<rect width="24" height="24" fill="white"/>
</clipPath>
</defs>
</svg>
