<svg width="185" height="212" viewBox="0 0 185 212" fill="none" xmlns="http://www.w3.org/2000/svg">
<line x1="50.6457" y1="31.9685" x2="7.03855" y2="105.968" stroke="black"/>
<line x1="180.146" y1="104.646" x2="135.572" y2="180.684" stroke="black"/>
<line x1="50.2143" y1="32.535" x2="137.296" y2="32.535" stroke="black"/>
<line x1="50.2143" y1="180.535" x2="136.107" y2="180.535" stroke="black"/>
<line x1="136.536" y1="32.7781" x2="180.177" y2="105.513" stroke="black"/>
<line x1="7.04178" y1="105.466" x2="49.9844" y2="180.615" stroke="black"/>
<line x1="94.0635" y1="48.0096" x2="43.8493" y2="75.7596" stroke="black"/>
<line x1="142.668" y1="77.6725" x2="93.3818" y2="48.3049" stroke="black"/>
<line x1="93.9666" y1="163.267" x2="44.6808" y2="135.221" stroke="black"/>
<line x1="141.64" y1="135.221" x2="92.7473" y2="162.971" stroke="black"/>
<line x1="44.1077" y1="75.3214" x2="44.1077" y2="136.107" stroke="black"/>
<line x1="141.894" y1="77.9643" x2="141.894" y2="136.107" stroke="black"/>
<line x1="93.0007" y1="14.5357" x2="93.0007" y2="48.8929" stroke="black"/>
<line x1="12.1169" y1="59.0165" x2="45.0098" y2="75.4629" stroke="black"/>
<line x1="43.8534" y1="135.222" x2="13.4605" y2="152.4" stroke="black"/>
<line x1="173.002" y1="59.9042" x2="141.632" y2="76.9548" stroke="black"/>
<line x1="141.625" y1="135.663" x2="172.017" y2="151.52" stroke="black"/>
<line x1="93.0007" y1="162.536" x2="93.0007" y2="196.893" stroke="black"/>
<circle cx="93.1609" cy="106.375" r="15.1964" fill="#48C9F3"/>
<circle cx="93.1608" cy="7.26786" r="6.76786" stroke="black"/>
<circle cx="93.1608" cy="7.26786" r="6.76786" stroke="black" stroke-opacity="0.2"/>
<circle cx="93.1608" cy="7.26788" r="1.98214" fill="#48C9F3"/>
<circle cx="93.1608" cy="204.161" r="6.76786" stroke="black"/>
<circle cx="93.1608" cy="204.161" r="6.76786" stroke="black" stroke-opacity="0.2"/>
<circle cx="93.1608" cy="204.161" r="1.98214" fill="#48C9F3"/>
<circle cx="7.26786" cy="54.8393" r="6.76786" stroke="black"/>
<circle cx="7.26786" cy="54.8393" r="6.76786" stroke="black" stroke-opacity="0.2"/>
<circle cx="7.26785" cy="54.8393" r="1.98214" fill="#48C9F3"/>
<circle cx="93.1607" cy="106.375" r="9.41071" stroke="black"/>
<circle cx="93.1607" cy="106.375" r="9.41071" stroke="black" stroke-opacity="0.2"/>
<circle cx="93.1604" cy="106.375" r="2.70292" fill="#BFA2DD"/>
<circle cx="93.1607" cy="106.375" r="19.9821" stroke="black"/>
<circle cx="93.1607" cy="106.375" r="19.9821" stroke="black" stroke-opacity="0.2"/>
<circle cx="93.1592" cy="106.375" r="5.58604" fill="black"/>
<circle cx="7.26786" cy="155.268" r="6.76786" stroke="black"/>
<circle cx="7.26786" cy="155.268" r="6.76786" stroke="black" stroke-opacity="0.2"/>
<circle cx="7.26785" cy="155.268" r="1.98214" fill="#48C9F3"/>
<circle cx="177.388" cy="54.8393" r="6.76786" stroke="black"/>
<circle cx="177.388" cy="54.8393" r="6.76786" stroke="black" stroke-opacity="0.2"/>
<circle cx="177.388" cy="54.8393" r="1.98214" fill="#48C9F3"/>
<circle cx="177.732" cy="155.268" r="6.76786" stroke="black"/>
<circle cx="177.732" cy="155.268" r="6.76786" stroke="black" stroke-opacity="0.2"/>
<circle cx="177.732" cy="155.268" r="1.98214" fill="#48C9F3"/>
<path d="M128.999 105.714C128.999 125.881 112.945 142.214 93.1607 142.214C73.3761 142.214 57.3221 125.881 57.3221 105.714C57.3221 85.5477 73.3761 69.215 93.1607 69.215C112.945 69.215 128.999 85.5477 128.999 105.714Z" stroke="black"/>
<path d="M128.971 106.378C123.735 121.895 111.42 130.991 93.1741 134.275C73.5249 129.667 59.9748 119.891 57.3364 106.401C61.2819 93.419 73.6415 80.439 93.1615 78.4674C103.292 79.4559 110.94 82.7242 116.706 87.5967C122.443 92.445 126.349 98.9093 128.971 106.378Z" stroke="black"/>
<line x1="43.9198" y1="94.7519" x2="57.1341" y2="105.323" stroke="black"/>
<line x1="142.449" y1="118.345" x2="128.953" y2="108.135" stroke="black"/>
<line x1="44.0504" y1="118.898" x2="57.5047" y2="108.634" stroke="black"/>
<line x1="141.665" y1="94.2111" x2="128.493" y2="104.836" stroke="black"/>
<circle cx="29.732" cy="68.0536" r="1.98214" fill="black"/>
<circle cx="157.911" cy="68.0536" r="1.98214" fill="black"/>
<circle cx="93.1608" cy="32.375" r="1.98214" fill="black"/>
<circle cx="93.1608" cy="180.375" r="1.98214" fill="black"/>
<circle cx="157.911" cy="143.375" r="1.98214" fill="black"/>
<circle cx="29.732" cy="143.375" r="1.98214" fill="black"/>
</svg>
