<svg width="24" height="24" viewBox="0 0 24 24" fill="none" xmlns="http://www.w3.org/2000/svg">
<path d="M14.532 9.472L9.47203 14.532C9.13979 14.1998 8.87624 13.8053 8.69643 13.3712C8.51662 12.9371 8.42407 12.4719 8.42407 12.002C8.42407 11.5321 8.51662 11.0669 8.69643 10.6328C8.87624 10.1987 9.13979 9.80425 9.47203 9.472C9.80428 9.13976 10.1987 8.87621 10.6328 8.6964C11.0669 8.51659 11.5322 8.42404 12.002 8.42404C12.4719 8.42404 12.9372 8.51659 13.3713 8.6964C13.8054 8.87621 14.1998 9.13976 14.532 9.472Z" stroke="black" stroke-width="1.5" stroke-linecap="round" stroke-linejoin="round"/>
<path d="M17.8201 5.77001C16.0701 4.45001 14.0701 3.73001 12.0001 3.73001C8.47009 3.73001 5.18009 5.81001 2.89009 9.41001C1.99009 10.82 1.99009 13.19 2.89009 14.6C3.68009 15.84 4.60009 16.91 5.60009 17.77" stroke="black" stroke-width="1.5" stroke-linecap="round" stroke-linejoin="round"/>
<path opacity="0.4" d="M8.42212 19.53C9.56212 20.01 10.7721 20.27 12.0021 20.27C15.5321 20.27 18.8221 18.19 21.1121 14.59C22.0121 13.18 22.0121 10.81 21.1121 9.39999C20.7821 8.87999 20.4221 8.38999 20.0521 7.92999" stroke="black" stroke-width="1.5" stroke-linecap="round" stroke-linejoin="round"/>
<path opacity="0.4" d="M15.5109 12.7C15.3755 13.3976 15.0346 14.0388 14.5321 14.5412C14.0297 15.0437 13.3885 15.3845 12.6909 15.52" stroke="black" stroke-width="1.5" stroke-linecap="round" stroke-linejoin="round"/>
<path d="M9.47 14.531L2 22.001M22.001 2L14.531 9.47" stroke="black" stroke-width="1.5" stroke-linecap="round" stroke-linejoin="round"/>
</svg>
