<svg width="20" height="25" viewBox="0 0 20 25" fill="none" xmlns="http://www.w3.org/2000/svg">
<path d="M13.7497 17.4999H6.24989C5.91837 17.4999 5.60043 17.6316 5.36602 17.866C5.1316 18.1004 4.99991 18.4184 4.99991 18.7499C4.99991 19.0814 5.1316 19.3993 5.36602 19.6337C5.60043 19.8682 5.91837 19.9998 6.24989 19.9998H13.7497C14.0813 19.9998 14.3992 19.8682 14.6336 19.6337C14.868 19.3993 14.9997 19.0814 14.9997 18.7499C14.9997 18.4184 14.868 18.1004 14.6336 17.866C14.3992 17.6316 14.0813 17.4999 13.7497 17.4999Z" fill="#231F20" fill-opacity="0.77"/>
<path d="M6.24989 14.9999H9.99982C10.3313 14.9999 10.6493 14.8682 10.8837 14.6338C11.1181 14.3994 11.2498 14.0814 11.2498 13.7499C11.2498 13.4184 11.1181 13.1005 10.8837 12.8661C10.6493 12.6316 10.3313 12.5 9.99982 12.5H6.24989C5.91837 12.5 5.60043 12.6316 5.36602 12.8661C5.1316 13.1005 4.99991 13.4184 4.99991 13.7499C4.99991 14.0814 5.1316 14.3994 5.36602 14.6338C5.60043 14.8682 5.91837 14.9999 6.24989 14.9999Z" fill="#231F20" fill-opacity="0.77"/>
<path d="M19.6746 7.91258L12.8748 0.412717C12.7579 0.283229 12.6152 0.179633 12.4559 0.108592C12.2966 0.0375511 12.1242 0.000637245 11.9498 0.000224966H3.19994C2.78464 -0.00472881 2.37242 0.0721737 1.98684 0.226541C1.60126 0.380909 1.24986 0.609718 0.95271 0.899901C0.655562 1.19008 0.418485 1.53596 0.255018 1.91777C0.0915509 2.29959 0.00489538 2.70986 0 3.12517V21.8748C0.00489538 22.2901 0.0915509 22.7004 0.255018 23.0822C0.418485 23.464 0.655562 23.8099 0.95271 24.1001C1.24986 24.3903 1.60126 24.6191 1.98684 24.7735C2.37242 24.9278 2.78464 25.0047 3.19994 24.9998H16.7997C17.215 25.0047 17.6272 24.9278 18.0128 24.7735C18.3984 24.6191 18.7498 24.3903 19.0469 24.1001C19.3441 23.8099 19.5811 23.464 19.7446 23.0822C19.9081 22.7004 19.9947 22.2901 19.9996 21.8748V8.75007C19.9988 8.44028 19.883 8.14183 19.6746 7.91258ZM12.4998 3.75016L15.9247 7.50009H13.4248C13.2939 7.49219 13.1658 7.45829 13.0482 7.40038C12.9305 7.34247 12.8256 7.26171 12.7395 7.1628C12.6534 7.06389 12.5878 6.94883 12.5467 6.82432C12.5055 6.69981 12.4896 6.56835 12.4998 6.43761V3.75016ZM16.7997 22.4998H3.19994C3.11291 22.5049 3.02574 22.4927 2.94341 22.464C2.86109 22.4353 2.78524 22.3907 2.72021 22.3326C2.65519 22.2746 2.60226 22.2042 2.56446 22.1257C2.52666 22.0471 2.50474 21.9619 2.49995 21.8748V3.12517C2.50474 3.03812 2.52666 2.95288 2.56446 2.87432C2.60226 2.79576 2.65519 2.72544 2.72021 2.66737C2.78524 2.60931 2.86109 2.56466 2.94341 2.53597C3.02574 2.50727 3.11291 2.49511 3.19994 2.50018H9.99981V6.43761C9.97964 7.35837 10.3245 8.24973 10.9591 8.91715C11.5938 9.58457 12.4666 9.97386 13.3873 10H17.4997V21.8748C17.4949 21.9619 17.473 22.0471 17.4352 22.1257C17.3974 22.2042 17.3444 22.2746 17.2794 22.3326C17.2144 22.3907 17.1385 22.4353 17.0562 22.464C16.9739 22.4927 16.8867 22.5049 16.7997 22.4998Z" fill="#231F20" fill-opacity="0.77"/>
</svg>
