<svg width="24" height="24" viewBox="0 0 24 24" fill="none" xmlns="http://www.w3.org/2000/svg">
<path d="M2 10H22" stroke="black" stroke-width="1.5" stroke-miterlimit="10" stroke-linecap="round" stroke-linejoin="round"/>
<path d="M11.548 20.502H6.43804C2.88804 20.502 1.98804 19.622 1.98804 16.112V7.89199C1.98804 4.71199 2.72804 3.69199 5.51804 3.53199C5.79804 3.52199 6.10804 3.51199 6.43804 3.51199H17.548C21.098 3.51199 21.998 4.39199 21.998 7.90199V12.312" stroke="black" stroke-width="1.5" stroke-linecap="round" stroke-linejoin="round"/>
<path opacity="0.4" d="M6 16H10M22 18C22 18.75 21.79 19.46 21.42 20.06C21.0675 20.6525 20.5667 21.143 19.967 21.4831C19.3674 21.8233 18.6894 22.0014 18 22C17.3106 22.0014 16.6326 21.8233 16.033 21.4831C15.4333 21.143 14.9325 20.6525 14.58 20.06C14.1993 19.4404 13.9985 18.7272 14 18C14 15.79 15.79 14 18 14C20.21 14 22 15.79 22 18Z" stroke="black" stroke-width="1.5" stroke-miterlimit="10" stroke-linecap="round" stroke-linejoin="round"/>
<path opacity="0.4" d="M16.441 18L17.431 18.99L19.561 17.02" stroke="black" stroke-width="1.5" stroke-linecap="round" stroke-linejoin="round"/>
</svg>
