<svg width="30" height="30" viewBox="0 0 30 30" fill="none" xmlns="http://www.w3.org/2000/svg">
<g filter="url(#filter0_d_0_4)">
<path d="M25.5251 12.725L15.8875 2.87503C15.7713 2.75787 15.6331 2.66487 15.4808 2.60141C15.3284 2.53795 15.1651 2.50528 15 2.50528C14.835 2.50528 14.6717 2.53795 14.5193 2.60141C14.367 2.66487 14.2288 2.75787 14.1125 2.87503L4.47505 12.7375C4.24184 12.9726 4.05766 13.2517 3.93321 13.5585C3.80875 13.8654 3.74649 14.1939 3.75005 14.525V25C3.74908 25.6399 3.99351 26.2558 4.43301 26.7209C4.87252 27.186 5.47362 27.4648 6.11255 27.5H23.8876C24.5265 27.4648 25.1276 27.186 25.5671 26.7209C26.0066 26.2558 26.251 25.6399 26.2501 25V14.525C26.251 13.8537 25.9911 13.2083 25.5251 12.725ZM12.5 25V17.5H17.5V25H12.5ZM23.7501 25H20.0001V16.25C20.0001 15.9185 19.8684 15.6006 19.6339 15.3661C19.3995 15.1317 19.0816 15 18.7501 15H11.25C10.9185 15 10.6006 15.1317 10.3662 15.3661C10.1317 15.6006 10 15.9185 10 16.25V25H6.25005V14.475L15 5.53753L23.7501 14.525V25Z" fill="#1876D0"/>
</g>
<defs>
<filter id="filter0_d_0_4" x="-0.250098" y="2.50528" width="30.5002" height="32.9948" filterUnits="userSpaceOnUse" color-interpolation-filters="sRGB">
<feFlood flood-opacity="0" result="BackgroundImageFix"/>
<feColorMatrix in="SourceAlpha" type="matrix" values="0 0 0 0 0 0 0 0 0 0 0 0 0 0 0 0 0 0 127 0" result="hardAlpha"/>
<feOffset dy="4"/>
<feGaussianBlur stdDeviation="2"/>
<feComposite in2="hardAlpha" operator="out"/>
<feColorMatrix type="matrix" values="0 0 0 0 0.0941176 0 0 0 0 0.462745 0 0 0 0 0.815686 0 0 0 0.1 0"/>
<feBlend mode="normal" in2="BackgroundImageFix" result="effect1_dropShadow_0_4"/>
<feBlend mode="normal" in="SourceGraphic" in2="effect1_dropShadow_0_4" result="shape"/>
</filter>
</defs>
</svg>
