<svg width="119" height="138" viewBox="0 0 119 138" fill="none" xmlns="http://www.w3.org/2000/svg">
<g filter="url(#filter0_d_530_799)">
<rect x="4" width="111" height="130" rx="22" fill="url(#paint0_linear_530_799)" shape-rendering="crispEdges"/>
</g>
<path d="M112.856 114H69.6395C69.6015 114 69.5649 113.981 69.538 113.947C69.5111 113.913 69.496 113.867 69.496 113.819C69.496 113.771 69.5111 113.725 69.538 113.691C69.5649 113.657 69.6015 113.638 69.6395 113.638H112.856C112.895 113.638 112.931 113.657 112.958 113.691C112.985 113.725 113 113.771 113 113.819C113 113.867 112.985 113.913 112.958 113.947C112.931 113.981 112.895 114 112.856 114Z" fill="#3F3D56"/>
<path d="M85.8741 111.926H84.114L83.2765 103.361L85.8746 103.361L85.8741 111.926Z" fill="#FFB8B8"/>
<path d="M82.8566 111.291H86.2513V113.988H80.7192C80.7192 113.634 80.7745 113.283 80.8819 112.956C80.9893 112.629 81.1467 112.331 81.3452 112.081C81.5437 111.831 81.7793 111.632 82.0386 111.497C82.298 111.361 82.5759 111.291 82.8566 111.291Z" fill="#2F2E41"/>
<path d="M98.6462 109.411L97.0451 110.333L93.4624 102.982L95.8254 101.62L98.6462 109.411Z" fill="#FFB8B8"/>
<path d="M26.4978 51.2428C26.2503 51.2428 26.0129 51.3668 25.8379 51.5876C25.6629 51.8084 25.5645 52.1078 25.5645 52.42C25.5645 52.7323 25.6629 53.0317 25.8379 53.2525C26.0129 53.4733 26.2503 53.5973 26.4978 53.5973H45.1629C45.4104 53.5973 45.6478 53.4733 45.8228 53.2525C45.9978 53.0317 46.0961 52.7323 46.0961 52.42C46.0961 52.1078 45.9978 51.8084 45.8228 51.5876C45.6478 51.3668 45.4104 51.2428 45.1629 51.2428H26.4978Z" fill="#3F3D56"/>
<path d="M95.6924 110.415L98.7803 108.636L99.6683 111.088L94.6362 113.988C94.5196 113.666 94.4544 113.318 94.4444 112.964C94.4343 112.61 94.4797 112.257 94.5777 111.925C94.6758 111.594 94.8247 111.29 95.016 111.03C95.2073 110.771 95.4371 110.562 95.6924 110.415Z" fill="#3F3D56"/>
<path d="M93.5201 83.0479C93.6887 82.8878 93.8275 82.683 93.9266 82.4479C94.0257 82.2129 94.0828 81.9532 94.0938 81.6873C94.1047 81.4214 94.0693 81.1557 93.9901 80.9089C93.9109 80.6622 93.7897 80.4403 93.6351 80.259L95.7043 74.3364L93.0756 74.8984L91.5137 80.4364C91.2894 80.7841 91.1741 81.2236 91.1895 81.6714C91.2049 82.1193 91.35 82.5445 91.5973 82.8664C91.8447 83.1883 92.177 83.3845 92.5314 83.418C92.8857 83.4515 93.2375 83.3198 93.5201 83.0479Z" fill="#FFB8B8"/>
<path d="M85.762 109.668H84.0804C83.9173 109.667 83.7604 109.589 83.641 109.449C83.5216 109.309 83.4484 109.117 83.436 108.912L81.6575 78.0205C81.6507 77.9021 81.6644 77.7833 81.6978 77.6723C81.7312 77.5614 81.7834 77.4609 81.8507 77.378C81.9181 77.2952 81.9989 77.2318 82.0877 77.1925C82.1765 77.1532 82.271 77.1387 82.3646 77.1503L92.9513 78.4531C93.1089 78.4726 93.2554 78.5644 93.3629 78.7111C93.4705 78.8577 93.5315 79.0491 93.5346 79.2489L93.7384 92.8753C93.7395 92.9493 93.7508 93.0224 93.772 93.0915L97.7613 106.141C97.7921 106.242 97.8067 106.35 97.8043 106.458C97.8019 106.566 97.7824 106.672 97.7471 106.771C97.7118 106.869 97.6613 106.958 97.5986 107.031C97.5359 107.105 97.4622 107.162 97.3818 107.199L95.6778 107.991C95.5298 108.06 95.3669 108.058 95.22 107.986C95.073 107.914 94.952 107.776 94.8798 107.599L89.9792 95.5788C89.9525 95.5135 89.9329 95.4439 89.9211 95.3719L89.0839 90.2836C89.0597 90.1361 88.9945 90.0043 88.9002 89.9118C88.8059 89.8194 88.6885 89.7724 88.5692 89.7792C88.4499 89.786 88.3364 89.8462 88.249 89.949C88.1617 90.0518 88.1063 90.1905 88.0927 90.3402L86.4039 108.945C86.3859 109.144 86.3105 109.328 86.1921 109.461C86.0737 109.594 85.9206 109.668 85.762 109.668Z" fill="#2F2E41"/>
<path d="M86.5993 53.8666C88.5469 53.8666 90.1257 51.8749 90.1257 49.4181C90.1257 46.9613 88.5469 44.9697 86.5993 44.9697C84.6517 44.9697 83.0729 46.9613 83.0729 49.4181C83.0729 51.8749 84.6517 53.8666 86.5993 53.8666Z" fill="#FFB8B8"/>
<path d="M82.3286 78.1989C82.78 78.5918 87.8659 82.8195 93.6629 79.4568C93.5878 78.6402 92.8644 70.4409 93.4963 64.3965C93.796 61.5287 92.8907 58.8719 91.0126 57.1072C89.9925 56.1534 88.7893 55.5599 87.527 55.388C86.2646 55.216 84.9887 55.4718 83.8308 56.1289C83.7356 56.1827 83.6397 56.2387 83.5432 56.2968L82.3286 78.1989Z" fill="#1876D0"/>
<path d="M93.718 79.3894C93.6285 79.3894 93.54 79.3659 93.4581 79.3204C93.3763 79.2749 93.3028 79.2083 93.2424 79.125L92.4711 78.0634C92.396 77.9596 92.3434 77.8331 92.3183 77.6962C92.2932 77.5594 92.2965 77.4166 92.3277 77.2818L94.0944 69.7387L91.4064 62.6178C91.2885 62.3048 91.2596 61.9501 91.3246 61.6134C91.3819 61.3178 91.5088 61.0511 91.6887 60.8484C91.8686 60.6457 92.093 60.5166 92.3323 60.478C92.5715 60.4395 92.8144 60.4933 93.0289 60.6324C93.2435 60.7715 93.4195 60.9894 93.5339 61.2573L97.1677 68.6953C97.3091 68.9843 97.3921 69.3126 97.4093 69.6515C97.4266 69.9904 97.3776 70.3294 97.2667 70.6388L94.3076 78.9096C94.2638 79.0326 94.1963 79.1399 94.1113 79.2219C94.0264 79.3038 93.9266 79.3578 93.821 79.379C93.7869 79.3859 93.7525 79.3894 93.718 79.3894Z" fill="#1876D0"/>
<path opacity="0.2" d="M84.9383 78.4248H83.5295L85.9887 63.826L86.1306 63.8494L85.5836 77.6506C85.5754 77.8595 85.5038 78.0563 85.3837 78.2005C85.2636 78.3446 85.1041 78.4249 84.9383 78.4248Z" fill="black"/>
<path d="M83.6348 82.0543C83.7734 81.8535 83.8754 81.6168 83.9337 81.3609C83.9919 81.105 84.005 80.8361 83.972 80.5731C83.9389 80.3101 83.8606 80.0595 83.7425 79.8388C83.6243 79.6182 83.4693 79.4329 83.2883 79.296L84.3376 72.9606L81.8586 74.1988L81.2422 80.0252C81.0801 80.4241 81.0396 80.8842 81.1284 81.3182C81.2172 81.7523 81.4291 82.1302 81.724 82.3803C82.019 82.6304 82.3763 82.7353 82.7285 82.6753C83.0807 82.6152 83.4031 82.3942 83.6348 82.0543Z" fill="#FFB8B8"/>
<path d="M83.4926 78.443C83.4683 78.443 83.444 78.4412 83.4198 78.4379L81.9173 78.2272C81.7549 78.2038 81.6055 78.1039 81.499 77.9474C81.3925 77.791 81.3368 77.5896 81.3431 77.3835L81.9647 58.4056C81.9842 57.8104 82.175 57.2445 82.5013 56.8139C82.8277 56.3832 83.2672 56.1173 83.7377 56.0659C84.2082 56.0145 84.6775 56.1811 85.0577 56.5346C85.4378 56.888 85.7029 57.4041 85.8032 57.9863L86.2037 60.31L86.2017 60.3265L84.13 77.7486C84.1076 77.9416 84.0308 78.118 83.9138 78.2455C83.7968 78.373 83.6473 78.4431 83.4926 78.443Z" fill="#1876D0"/>
<path d="M89.5048 53.34C89.1391 53.4191 88.8382 52.777 88.7927 52.3254C88.7472 51.8737 88.8777 51.4414 88.8919 50.9927C88.9061 50.544 88.7384 49.9987 88.369 49.8657C87.9817 49.7262 87.6227 50.1181 87.2262 50.071C86.6737 50.0053 86.3963 49.1897 86.3294 48.5299C86.2625 47.8701 86.2099 47.0888 85.7314 46.7126C85.2544 46.3375 84.6644 46.6104 84.1163 46.6221C83.19 46.6418 82.247 45.7507 82.0305 44.6511C82.1429 44.6919 82.2629 44.6843 82.3714 44.6295C82.48 44.5747 82.571 44.4757 82.6299 44.3483C82.6763 44.2124 82.6858 44.0609 82.6569 43.9175C82.6279 43.774 82.5622 43.6467 82.4699 43.5553L83.5199 44.2039C83.3764 43.8355 83.5931 43.4158 83.8914 43.2763C84.1897 43.1368 84.5368 43.1995 84.866 43.264C86.51 43.5862 88.4143 43.4274 89.5048 45.0086C90.2601 46.1039 90.8819 48.188 90.797 49.5366C90.7121 50.8851 89.5048 53.34 89.5048 53.34Z" fill="#3F3D56"/>
<path d="M49.4889 103.495H11.7279C11.4615 103.495 11.206 103.361 11.0176 103.123C10.8292 102.886 10.7232 102.563 10.7229 102.227L9 21.2727C8.99974 21.1059 9.02553 20.9406 9.0759 20.7864C9.12626 20.6322 9.20022 20.492 9.29354 20.3738C9.38686 20.2556 9.49773 20.1618 9.6198 20.0976C9.74187 20.0335 9.87276 20.0003 10.005 20H47.7659C48.0324 20.0004 48.2879 20.1341 48.4763 20.3718C48.6647 20.6094 48.7707 20.9317 48.771 21.2678L49.0831 35.9335L48.7961 35.9432L48.4839 21.2727C48.4842 21.1534 48.4658 21.0353 48.4299 20.925C48.3939 20.8147 48.3411 20.7144 48.2745 20.6298C48.2078 20.5453 48.1286 20.4781 48.0413 20.4322C47.9541 20.3863 47.8605 20.3625 47.7659 20.3622H10.005C9.81466 20.3625 9.63219 20.458 9.49761 20.6278C9.36303 20.7976 9.28732 21.0277 9.2871 21.2678L11.01 102.222C11.0097 102.342 11.0281 102.46 11.064 102.57C11.0999 102.681 11.1527 102.781 11.2194 102.865C11.2861 102.95 11.3653 103.017 11.4526 103.063C11.5398 103.109 11.6334 103.133 11.7279 103.133H49.4889C49.6792 103.133 49.8617 103.037 49.9963 102.867C50.1308 102.698 50.2065 102.467 50.2068 102.227L49.8715 86.475L50.1585 86.4653L50.4939 102.222C50.4941 102.389 50.4684 102.555 50.418 102.709C50.3676 102.863 50.2937 103.003 50.2003 103.121C50.107 103.24 49.9961 103.333 49.8741 103.398C49.752 103.462 49.6211 103.495 49.4889 103.495Z" fill="#C0C0C0"/>
<path d="M49.5457 57.6676L49.2586 57.6773L49.4066 64.6296L49.6937 64.6199L49.5457 57.6676Z" fill="#CCCCCC"/>
<path d="M46.1004 96.3609H14.8207C14.5934 96.3605 14.3755 96.2465 14.2148 96.0438C14.0541 95.8411 13.9637 95.5662 13.9635 95.2795L12.5363 28.2205C12.536 28.0782 12.558 27.9372 12.6009 27.8056C12.6438 27.674 12.7069 27.5543 12.7865 27.4534C12.8661 27.3526 12.9607 27.2725 13.0648 27.2177C13.1689 27.163 13.2806 27.1346 13.3934 27.1343H44.6732C44.9005 27.1347 45.1183 27.2487 45.279 27.4514C45.4397 27.6541 45.5301 27.929 45.5304 28.2156L45.7889 35.9307L45.502 35.946L45.2434 28.2233C45.2439 28.1283 45.2295 28.0341 45.2011 27.9461C45.1727 27.8582 45.1308 27.7781 45.0778 27.7106C45.0249 27.6431 44.9619 27.5895 44.8924 27.5527C44.823 27.516 44.7485 27.4969 44.6732 27.4966H13.3934C13.2423 27.4968 13.0974 27.5726 12.9906 27.7074C12.8837 27.8422 12.8236 28.025 12.8234 28.2157L14.2506 95.2747C14.2503 95.3695 14.2648 95.4634 14.2933 95.5511C14.3218 95.6388 14.3637 95.7185 14.4166 95.7857C14.4696 95.853 14.5325 95.9064 14.6019 95.9429C14.6712 95.9794 14.7455 95.9984 14.8207 95.9986H46.1004C46.2515 95.9984 46.3964 95.9226 46.5033 95.7878C46.6102 95.653 46.6703 95.4702 46.6705 95.2795L46.4856 86.4749L46.7727 86.4654L46.9575 95.2748C46.9578 95.4171 46.9359 95.5581 46.8929 95.6897C46.85 95.8213 46.7869 95.941 46.7073 96.0418C46.6277 96.1427 46.5332 96.2227 46.429 96.2775C46.3249 96.3322 46.2132 96.3606 46.1004 96.3609Z" fill="#BFBFBF"/>
<path d="M46.1721 57.8488L45.8851 57.8584L46.0295 64.7408L46.3166 64.7312L46.1721 57.8488Z" fill="#CCCCCC"/>
<path d="M54.4237 57.8536H17.8113C17.5463 57.8532 17.2921 57.7209 17.1039 57.4855C16.9157 57.2501 16.8088 56.9305 16.8063 56.5962L16.232 37.0251C16.2323 36.6889 16.3383 36.3667 16.5267 36.129C16.7151 35.8913 16.9706 35.7576 17.237 35.7572H53.8493C54.1144 35.7576 54.3686 35.8899 54.5568 36.1253C54.745 36.3607 54.8519 36.6803 54.8544 37.0146L55.4287 56.5858C55.4284 56.9219 55.3224 57.2441 55.134 57.4818C54.9456 57.7195 54.6901 57.8532 54.4237 57.8536ZM16.5192 37.0155L17.0934 56.5858C17.0937 56.8258 17.1694 57.056 17.304 57.2258C17.4385 57.3956 17.621 57.4911 17.8113 57.4913H54.4237C54.6127 57.4911 54.794 57.3969 54.9284 57.2292C55.0627 57.0614 55.1393 56.8337 55.1415 56.5953L54.5672 37.0251C54.567 36.785 54.4913 36.5548 54.3567 36.385C54.2221 36.2152 54.0397 36.1197 53.8493 36.1195H17.237C17.048 36.1197 16.8667 36.2139 16.7323 36.3817C16.598 36.5494 16.5214 36.7771 16.5192 37.0155Z" fill="#3F3D56"/>
<path d="M61.3154 86.6512H24.7031C24.438 86.6509 24.1838 86.5186 23.9957 86.2832C23.8075 86.0477 23.7005 85.7282 23.6981 85.3938L23.1237 65.8227C23.124 65.4866 23.23 65.1643 23.4184 64.9266C23.6068 64.689 23.8623 64.5553 24.1288 64.5549H60.7411C61.0061 64.5552 61.2603 64.6875 61.4485 64.9229C61.6367 65.1584 61.7436 65.478 61.7461 65.8123L62.3204 85.3834C62.3201 85.7195 62.2142 86.0418 62.0257 86.2795C61.8373 86.5172 61.5819 86.6509 61.3154 86.6512ZM23.4109 65.8132L23.9852 85.3834C23.9854 85.6235 24.0611 85.8537 24.1957 86.0234C24.3303 86.1932 24.5128 86.2887 24.7031 86.289H61.3154C61.5044 86.2887 61.6857 86.1945 61.8201 86.0268C61.9545 85.8591 62.031 85.6314 62.0333 85.393L61.459 65.8227C61.4588 65.5826 61.3831 65.3524 61.2485 65.1827C61.1139 65.0129 60.9314 64.9174 60.7411 64.9171H24.1288C23.9398 64.9174 23.7584 65.0116 23.6241 65.1793C23.4897 65.347 23.4131 65.5747 23.4109 65.8132Z" fill="#3F3D56"/>
<path d="M33.3895 68.8112C33.142 68.8112 32.9046 68.9352 32.7296 69.156C32.5546 69.3768 32.4563 69.6762 32.4563 69.9885C32.4563 70.3007 32.5546 70.6001 32.7296 70.8209C32.9046 71.0417 33.142 71.1657 33.3895 71.1657H52.0546C52.3021 71.1657 52.5395 71.0417 52.7145 70.8209C52.8896 70.6001 52.9879 70.3007 52.9879 69.9885C52.9879 69.6762 52.8896 69.3768 52.7145 69.156C52.5395 68.9352 52.3021 68.8112 52.0546 68.8112H33.3895Z" fill="#3F3D56"/>
<path d="M33.3895 74.4258C33.142 74.4258 32.9046 74.5499 32.7296 74.7707C32.5546 74.9914 32.4563 75.2909 32.4563 75.6031C32.4563 75.9153 32.5546 76.2148 32.7296 76.4356C32.9046 76.6563 33.142 76.7804 33.3895 76.7804H52.0546C52.3021 76.7804 52.5395 76.6563 52.7145 76.4356C52.8896 76.2148 52.9879 75.9153 52.9879 75.6031C52.9879 75.2909 52.8896 74.9914 52.7145 74.7707C52.5395 74.5499 52.3021 74.4258 52.0546 74.4258H33.3895Z" fill="#3F3D56"/>
<path d="M33.3895 80.0405C33.142 80.0405 32.9046 80.1645 32.7296 80.3853C32.5546 80.6061 32.4563 80.9055 32.4563 81.2177C32.4563 81.53 32.5546 81.8294 32.7296 82.0502C32.9046 82.271 33.142 82.395 33.3895 82.395H52.0546C52.3021 82.395 52.5395 82.271 52.7145 82.0502C52.8896 81.8294 52.9879 81.53 52.9879 81.2177C52.9879 80.9055 52.8896 80.6061 52.7145 80.3853C52.5395 80.1645 52.3021 80.0405 52.0546 80.0405H33.3895Z" fill="#3F3D56"/>
<path d="M26.4978 40.0135C26.2503 40.0135 26.0129 40.1375 25.8379 40.3583C25.6629 40.5791 25.5645 40.8785 25.5645 41.1908C25.5645 41.503 25.6629 41.8024 25.8379 42.0232C26.0129 42.244 26.2503 42.368 26.4978 42.368H45.1629C45.4104 42.368 45.6478 42.244 45.8228 42.0232C45.9978 41.8024 46.0961 41.503 46.0961 41.1908C46.0961 40.8785 45.9978 40.5791 45.8228 40.3583C45.6478 40.1375 45.4104 40.0135 45.1629 40.0135H26.4978Z" fill="#3F3D56"/>
<path d="M26.4978 45.6281C26.2503 45.6281 26.0129 45.7522 25.8379 45.9729C25.6629 46.1937 25.5645 46.4932 25.5645 46.8054C25.5645 47.1176 25.6629 47.4171 25.8379 47.6378C26.0129 47.8586 26.2503 47.9827 26.4978 47.9827H45.1629C45.4104 47.9827 45.6478 47.8586 45.8228 47.6378C45.9978 47.4171 46.0961 47.1176 46.0961 46.8054C46.0961 46.4932 45.9978 46.1937 45.8228 45.9729C45.6478 45.7522 45.4104 45.6281 45.1629 45.6281H26.4978Z" fill="#3F3D56"/>
<defs>
<filter id="filter0_d_530_799" x="0" y="0" width="119" height="138" filterUnits="userSpaceOnUse" color-interpolation-filters="sRGB">
<feFlood flood-opacity="0" result="BackgroundImageFix"/>
<feColorMatrix in="SourceAlpha" type="matrix" values="0 0 0 0 0 0 0 0 0 0 0 0 0 0 0 0 0 0 127 0" result="hardAlpha"/>
<feOffset dy="4"/>
<feGaussianBlur stdDeviation="2"/>
<feComposite in2="hardAlpha" operator="out"/>
<feColorMatrix type="matrix" values="0 0 0 0 0 0 0 0 0 0 0 0 0 0 0 0 0 0 0.25 0"/>
<feBlend mode="normal" in2="BackgroundImageFix" result="effect1_dropShadow_530_799"/>
<feBlend mode="normal" in="SourceGraphic" in2="effect1_dropShadow_530_799" result="shape"/>
</filter>
<linearGradient id="paint0_linear_530_799" x1="110.5" y1="130" x2="8.58203" y2="29.5114" gradientUnits="userSpaceOnUse">
<stop stop-color="#1876D0"/>
<stop offset="1" stop-color="#A4CEF7" stop-opacity="0"/>
</linearGradient>
</defs>
</svg>
