<svg width="40" height="28" viewBox="0 0 40 28" fill="none" xmlns="http://www.w3.org/2000/svg">
<path d="M30.5149 13.4166C29.7683 12.1216 25.6616 5.62332 18.6849 5.83332C12.2333 5.99665 8.49992 11.6666 7.48492 13.4166C7.38252 13.594 7.32861 13.7952 7.32861 14C7.32861 14.2048 7.38252 14.406 7.48492 14.5833C8.21992 15.855 12.1516 22.1666 19.0233 22.1666H19.3149C25.7666 22.0033 29.5116 16.3333 30.5149 14.5833C30.6173 14.406 30.6712 14.2048 30.6712 14C30.6712 13.7952 30.6173 13.594 30.5149 13.4166ZM19.2566 19.8333C14.2283 19.95 10.9499 15.645 9.92325 14C11.0899 12.1216 14.1349 8.28332 18.8016 8.16665C23.8066 8.03832 27.0966 12.355 28.1349 14C26.9333 15.8783 23.9233 19.7166 19.2566 19.8333Z" fill="#1876D0"/>
<path d="M18.9998 9.91673C18.1922 9.91673 17.4028 10.1562 16.7313 10.6049C16.0598 11.0536 15.5364 11.6913 15.2273 12.4374C14.9183 13.1836 14.8374 14.0046 14.995 14.7967C15.1525 15.5888 15.5414 16.3164 16.1125 16.8874C16.6836 17.4585 17.4111 17.8474 18.2032 18.0049C18.9953 18.1625 19.8163 18.0816 20.5625 17.7726C21.3086 17.4635 21.9463 16.9401 22.395 16.2686C22.8437 15.5971 23.0832 14.8077 23.0832 14.0001C23.0832 12.9171 22.653 11.8785 21.8872 11.1127C21.1214 10.3469 20.0828 9.91673 18.9998 9.91673ZM18.9998 15.7501C18.6537 15.7501 18.3154 15.6474 18.0276 15.4551C17.7398 15.2628 17.5155 14.9895 17.383 14.6698C17.2506 14.35 17.2159 13.9981 17.2835 13.6587C17.351 13.3192 17.5177 13.0074 17.7624 12.7626C18.0071 12.5179 18.319 12.3512 18.6584 12.2837C18.9979 12.2162 19.3498 12.2508 19.6695 12.3833C19.9893 12.5157 20.2626 12.74 20.4549 13.0278C20.6472 13.3156 20.7498 13.6539 20.7498 14.0001C20.7498 14.4642 20.5655 14.9093 20.2373 15.2375C19.9091 15.5657 19.464 15.7501 18.9998 15.7501Z" fill="#1876D0"/>
<line x1="10" y1="0.5" x2="0.909091" y2="0.5" stroke="#1876D0"/>
<line x1="0.5" x2="0.5" y2="10" stroke="#1876D0"/>
<line x1="29.9993" y1="27.5" x2="39.0902" y2="27.4882" stroke="#1876D0"/>
<line y1="-0.5" x2="9.98572" y2="-0.5" transform="matrix(-0.00118238 -0.999999 0.999999 -0.00143068 40 27.9857)" stroke="#1876D0"/>
</svg>
