<svg width="22" height="22" viewBox="0 0 22 22" fill="none" xmlns="http://www.w3.org/2000/svg">
<path d="M21.2326 21.2326L19.186 19.186M10.4884 20.2093C11.7649 20.2093 13.029 19.9579 14.2084 19.4693C15.3878 18.9808 16.4594 18.2648 17.3621 17.3621C18.2648 16.4594 18.9808 15.3878 19.4693 14.2084C19.9579 13.029 20.2093 11.7649 20.2093 10.4884C20.2093 9.2118 19.9579 7.94773 19.4693 6.76833C18.9808 5.58894 18.2648 4.51731 17.3621 3.61464C16.4594 2.71196 15.3878 1.99593 14.2084 1.5074C13.029 1.01888 11.7649 0.767442 10.4884 0.767442C7.91022 0.767442 5.43766 1.79161 3.61464 3.61464C1.79161 5.43766 0.767442 7.91022 0.767442 10.4884C0.767442 13.0665 1.79161 15.5391 3.61464 17.3621C5.43766 19.1851 7.91022 20.2093 10.4884 20.2093Z" stroke="#8F8E93" stroke-width="1.5" stroke-linecap="round" stroke-linejoin="round"/>
</svg>
