<svg width="40" height="28" viewBox="0 0 40 28" fill="none" xmlns="http://www.w3.org/2000/svg">
<path d="M30.515 13.4166C29.7683 12.1216 25.6617 5.62332 18.685 5.83332C12.2333 5.99665 8.50001 11.6666 7.48501 13.4166C7.38261 13.594 7.3287 13.7952 7.3287 14C7.3287 14.2048 7.38261 14.406 7.48501 14.5833C8.22001 15.855 12.1517 22.1666 19.0233 22.1666H19.315C25.7667 22.0033 29.5117 16.3333 30.515 14.5833C30.6174 14.406 30.6713 14.2048 30.6713 14C30.6713 13.7952 30.6174 13.594 30.515 13.4166ZM19.2567 19.8333C14.2283 19.95 10.95 15.645 9.92334 14C11.09 12.1216 14.135 8.28332 18.8017 8.16665C23.8067 8.03832 27.0967 12.355 28.135 14C26.9333 15.8783 23.9233 19.7166 19.2567 19.8333Z" fill="#565353"/>
<path d="M19 9.91673C18.1924 9.91673 17.4029 10.1562 16.7314 10.6049C16.0599 11.0536 15.5365 11.6913 15.2275 12.4374C14.9184 13.1836 14.8375 14.0046 14.9951 14.7967C15.1526 15.5888 15.5415 16.3164 16.1126 16.8874C16.6837 17.4585 17.4113 17.8474 18.2033 18.0049C18.9954 18.1625 19.8165 18.0816 20.5626 17.7726C21.3087 17.4635 21.9464 16.9401 22.3951 16.2686C22.8438 15.5971 23.0833 14.8077 23.0833 14.0001C23.0833 12.9171 22.6531 11.8785 21.8873 11.1127C21.1215 10.3469 20.0829 9.91673 19 9.91673ZM19 15.7501C18.6538 15.7501 18.3155 15.6474 18.0277 15.4551C17.7399 15.2628 17.5156 14.9895 17.3832 14.6698C17.2507 14.35 17.2161 13.9981 17.2836 13.6587C17.3511 13.3192 17.5178 13.0074 17.7625 12.7626C18.0073 12.5179 18.3191 12.3512 18.6586 12.2837C18.998 12.2162 19.3499 12.2508 19.6697 12.3833C19.9894 12.5157 20.2627 12.74 20.455 13.0278C20.6473 13.3156 20.75 13.6539 20.75 14.0001C20.75 14.4642 20.5656 14.9093 20.2374 15.2375C19.9092 15.5657 19.4641 15.7501 19 15.7501Z" fill="#565353"/>
<line x1="10" y1="0.5" x2="0.909091" y2="0.5" stroke="#565353"/>
<line x1="0.5" x2="0.5" y2="10" stroke="#565353"/>
<line x1="29.9993" y1="27.5" x2="39.0902" y2="27.4882" stroke="#565353"/>
<line y1="-0.5" x2="9.98572" y2="-0.5" transform="matrix(-0.00118238 -0.999999 0.999999 -0.00143068 40 27.9857)" stroke="#565353"/>
</svg>
