<svg width="24" height="24" viewBox="0 0 24 24" fill="none" xmlns="http://www.w3.org/2000/svg">
<path d="M21.6601 10.438L20.6801 14.618C19.8401 18.228 18.1801 19.688 15.0601 19.388C14.5601 19.348 14.0201 19.258 13.4401 19.118L11.7601 18.718C7.59006 17.728 6.30006 15.668 7.28006 11.488L8.26006 7.29799C8.46006 6.44799 8.70006 5.70799 9.00006 5.09799C10.1701 2.67799 12.1601 2.02799 15.5001 2.81799L17.1701 3.20799C21.3601 4.18799 22.6401 6.25799 21.6601 10.438Z" stroke="black" stroke-width="1.5" stroke-linecap="round" stroke-linejoin="round"/>
<path opacity="0.4" d="M12.64 8.53099L17.49 9.76099M11.66 12.398L14.56 13.138M15.058 19.392C14.438 19.812 13.658 20.162 12.708 20.472L11.128 20.992C7.15802 22.272 5.06802 21.202 3.77802 17.232L2.49802 13.282C1.21802 9.31199 2.27802 7.21199 6.24802 5.93199L7.82802 5.41199C8.23802 5.28199 8.62802 5.17199 8.99802 5.10199C8.69802 5.71199 8.45802 6.45199 8.25802 7.30199L7.27802 11.492C6.29802 15.672 7.58802 17.732 11.758 18.722L13.438 19.122C14.018 19.262 14.558 19.352 15.058 19.392Z" stroke="black" stroke-width="1.5" stroke-linecap="round" stroke-linejoin="round"/>
</svg>
